<svg width="17" height="17" viewBox="0 0 17 17" fill="none" xmlns="http://www.w3.org/2000/svg">
<g clip-path="url(#clip0_316_1430)">
<path d="M2.46326 13.4346C2.90216 12.8095 3.48512 12.2992 4.16286 11.947C4.84059 11.5947 5.59317 11.4108 6.35698 11.4108C7.12079 11.4108 7.87338 11.5947 8.55111 11.947C9.22884 12.2992 9.8118 12.8095 10.2507 13.4346C10.3051 13.5206 10.3764 13.5947 10.4603 13.6523C10.5442 13.7099 10.639 13.7498 10.7388 13.7697C10.8386 13.7896 10.9414 13.789 11.0409 13.7679C11.1405 13.7468 11.2348 13.7058 11.318 13.6472C11.4012 13.5886 11.4716 13.5137 11.525 13.4271C11.5784 13.3404 11.6136 13.2439 11.6286 13.1432C11.6435 13.0425 11.6378 12.9399 11.6119 12.8415C11.5859 12.7431 11.5403 12.651 11.4777 12.5707C10.8687 11.7051 10.051 11.0087 9.10174 10.5453C9.08251 10.5621 9.06312 10.5787 9.04357 10.5951L8.9361 10.4674L2.46326 13.4346ZM2.46326 13.4346C2.39444 13.5335 2.30267 13.6142 2.19582 13.6698C2.08897 13.7254 1.97023 13.7542 1.84978 13.7539C1.69493 13.7544 1.54383 13.7062 1.41784 13.6162L2.46326 13.4346ZM11.4591 4.73531C11.2149 4.73486 10.9718 4.76862 10.737 4.83561L10.737 4.8356L10.7351 4.83617C10.6608 4.85832 10.5829 4.86548 10.5058 4.85723C10.4288 4.84897 10.3542 4.82547 10.2863 4.7881C10.2184 4.75072 10.1586 4.70021 10.1104 4.63951C10.0623 4.57881 10.0266 4.50914 10.0057 4.43454C9.98466 4.35995 9.97872 4.28192 9.98818 4.205C9.99763 4.12809 10.0223 4.05382 10.0607 3.98653C10.0992 3.91924 10.1506 3.86026 10.212 3.81304C10.2735 3.76582 10.3437 3.73129 10.4186 3.71146L10.4186 3.71149L10.4216 3.71064C10.7589 3.61461 11.1079 3.56619 11.4586 3.56678L11.4594 3.56678C12.2474 3.56449 13.0169 3.80511 13.6632 4.25587C14.3096 4.70664 14.8013 5.34565 15.0714 6.0859C15.3416 6.82614 15.377 7.63166 15.1729 8.39277C14.9688 9.15388 14.5351 9.83359 13.9309 10.3394L13.7271 10.5099L13.9692 10.6195C14.9619 11.0687 15.8161 11.7756 16.443 12.6668L16.4438 12.6678C16.4883 12.7301 16.52 12.8007 16.5371 12.8754C16.5541 12.9501 16.5561 13.0274 16.543 13.1029C16.5299 13.1783 16.502 13.2505 16.4607 13.315C16.4195 13.3796 16.3659 13.4353 16.3029 13.479L16.398 13.6162L16.301 13.4803C16.2035 13.55 16.0866 13.5873 15.9668 13.5869C15.8731 13.5864 15.7809 13.5635 15.6978 13.5203C15.6147 13.477 15.5431 13.4146 15.4889 13.3383C15.0337 12.6925 14.4301 12.1654 13.7289 11.8013C13.0277 11.4371 12.2492 11.2466 11.4591 11.2457H11.4589C11.3039 11.2457 11.1553 11.1842 11.0457 11.0746C10.9362 10.965 10.8746 10.8164 10.8746 10.6614C10.8746 10.5065 10.9362 10.3579 11.0457 10.2483C11.1553 10.1387 11.3039 10.0772 11.4589 10.0772C12.1673 10.0772 12.8466 9.79577 13.3475 9.29488C13.8484 8.79398 14.1298 8.11462 14.1298 7.40624C14.1298 6.69787 13.8484 6.0185 13.3475 5.51761C12.8467 5.01675 12.1674 4.73536 11.4591 4.73531ZM11.4591 4.73531C11.4591 4.73531 11.4592 4.73531 11.4592 4.73531L11.4589 4.90224V4.73531C11.4589 4.73531 11.459 4.73531 11.4591 4.73531ZM8.82864 10.3396L8.62587 10.5102L8.86728 10.6195C9.85996 11.0687 10.7142 11.7756 11.3411 12.6668L11.341 12.6669L11.3461 12.6735C11.3948 12.7359 11.4303 12.8075 11.4505 12.884C11.4706 12.9606 11.4751 13.0404 11.4634 13.1187C11.4518 13.197 11.4244 13.2721 11.3829 13.3395C11.3414 13.4069 11.2866 13.4651 11.2219 13.5107C11.1571 13.5563 11.0838 13.5882 11.0064 13.6046C10.929 13.621 10.849 13.6214 10.7714 13.606C10.6937 13.5905 10.6201 13.5594 10.5548 13.5146C10.4896 13.4698 10.4341 13.4122 10.3918 13.3454L10.3919 13.3453L10.3873 13.3387C9.93302 12.6916 9.32961 12.1635 8.6281 11.7989C7.92658 11.4342 7.14759 11.2439 6.35698 11.2439C5.56637 11.2439 4.78738 11.4342 4.08587 11.7989C3.38436 12.1635 2.78094 12.6916 2.32664 13.3387L2.32627 13.3392C2.27287 13.4159 2.20166 13.4785 2.11876 13.5217C2.03585 13.5648 1.94372 13.5872 1.85026 13.5869L1.84924 13.5869C1.72938 13.5873 1.61243 13.55 1.51492 13.4803L1.51411 13.4798C1.38772 13.3906 1.30187 13.2549 1.2754 13.1024C1.24894 12.95 1.28398 12.7934 1.37284 12.6668C1.99978 11.7756 2.854 11.0687 3.84669 10.6195L4.0881 10.5102L3.88533 10.3396C3.28269 9.83267 2.85052 9.15265 2.64741 8.39177C2.4443 7.63089 2.48008 6.82596 2.74989 6.0861C3.01971 5.34624 3.5105 4.70724 4.15574 4.25574C4.80099 3.80424 5.56946 3.56207 6.35698 3.56207C7.1445 3.56207 7.91298 3.80424 8.55822 4.25574C9.20346 4.70724 9.69426 5.34624 9.96407 6.0861C10.2339 6.82596 10.2697 7.63089 10.0666 8.39177C9.86345 9.15265 9.43128 9.83267 8.82864 10.3396ZM4.13618 5.92235C3.8427 6.36158 3.68605 6.87798 3.68605 7.40624C3.68605 8.11462 3.96745 8.79398 4.46835 9.29488C4.96925 9.79577 5.64861 10.0772 6.35698 10.0772C6.88524 10.0772 7.40164 9.92053 7.84087 9.62704C8.28011 9.33355 8.62245 8.91641 8.8246 8.42836C9.02676 7.94031 9.07965 7.40328 8.97659 6.88517C8.87354 6.36706 8.61915 5.89114 8.24562 5.51761C7.87208 5.14407 7.39617 4.88969 6.87806 4.78663C6.35995 4.68357 5.82291 4.73646 5.33486 4.93862C4.84681 5.14078 4.42967 5.48312 4.13618 5.92235Z" fill="#4CAF4F" stroke="#4CAF4F" stroke-width="0.333867"/>
</g>
<defs>
<clipPath id="clip0_316_1430">
<rect width="16.0256" height="16.0256" fill="white" transform="translate(0.848145 0.645386)"/>
</clipPath>
</defs>
</svg>
