<svg width="23" height="19" viewBox="0 0 23 19" fill="none" xmlns="http://www.w3.org/2000/svg">
<path d="M22.3074 12.6869C22.3074 16.0059 19.6168 18.6965 16.2978 18.6965L7.28338 18.6965C6.36143 18.6965 5.61405 17.9491 5.61405 17.0272L5.61405 5.67573C5.61405 3.83184 7.10882 2.33707 8.95271 2.33707L20.638 2.33707C21.56 2.33707 22.3074 3.08446 22.3074 4.00641L22.3074 12.6869Z" fill="#E8F5E9"/>
<path d="M9.59242 6.34711C9.48825 6.34711 9.40356 6.26256 9.40356 6.15825V5.8373C9.40356 5.73312 9.48812 5.64844 9.59242 5.64844C9.6966 5.64844 9.78128 5.73299 9.78128 5.8373V6.15825C9.78128 6.26256 9.6966 6.34711 9.59242 6.34711Z" fill="#103E13"/>
<path d="M8.79848 6.34711C8.6943 6.34711 8.60962 6.26256 8.60962 6.15825V5.8373C8.60962 5.73312 8.69417 5.64844 8.79848 5.64844C8.90265 5.64844 8.98734 5.73299 8.98734 5.8373V6.15825C8.98721 6.26256 8.90279 6.34711 8.79848 6.34711Z" fill="#103E13"/>
<path d="M8.00453 6.34711C7.90036 6.34711 7.81567 6.26256 7.81567 6.15825V5.8373C7.81567 5.73312 7.90023 5.64844 8.00453 5.64844C8.10871 5.64844 8.19339 5.73299 8.19339 5.8373V6.15825C8.19339 6.26256 8.10884 6.34711 8.00453 6.34711Z" fill="#103E13"/>
<path d="M9.59242 7.6596C9.48825 7.6596 9.40356 7.57505 9.40356 7.47074V7.14992C9.40356 7.04575 9.48812 6.96106 9.59242 6.96106C9.6966 6.96106 9.78128 7.04561 9.78128 7.14992V7.47074C9.78128 7.57505 9.6966 7.6596 9.59242 7.6596Z" fill="#103E13"/>
<path d="M8.79848 7.6596C8.6943 7.6596 8.60962 7.57505 8.60962 7.47074V7.14992C8.60962 7.04575 8.69417 6.96106 8.79848 6.96106C8.90265 6.96106 8.98734 7.04561 8.98734 7.14992V7.47074C8.98721 7.57505 8.90279 7.6596 8.79848 7.6596Z" fill="#103E13"/>
<path d="M8.00453 7.6596C7.90036 7.6596 7.81567 7.57505 7.81567 7.47074V7.14992C7.81567 7.04575 7.90023 6.96106 8.00453 6.96106C8.10871 6.96106 8.19339 7.04561 8.19339 7.14992V7.47074C8.19339 7.57505 8.10884 7.6596 8.00453 7.6596Z" fill="#103E13"/>
<path d="M9.59242 8.97211C9.48825 8.97211 9.40356 8.88756 9.40356 8.78325V8.4623C9.40356 8.35812 9.48812 8.27344 9.59242 8.27344C9.6966 8.27344 9.78128 8.35799 9.78128 8.4623V8.78325C9.78128 8.88756 9.6966 8.97211 9.59242 8.97211Z" fill="#103E13"/>
<path d="M8.79848 8.97211C8.6943 8.97211 8.60962 8.88756 8.60962 8.78325V8.4623C8.60962 8.35812 8.69417 8.27344 8.79848 8.27344C8.90265 8.27344 8.98734 8.35799 8.98734 8.4623V8.78325C8.98721 8.88756 8.90279 8.97211 8.79848 8.97211Z" fill="#103E13"/>
<path d="M8.00453 8.97211C7.90036 8.97211 7.81567 8.88756 7.81567 8.78325V8.4623C7.81567 8.35812 7.90023 8.27344 8.00453 8.27344C8.10871 8.27344 8.19339 8.35799 8.19339 8.4623V8.78325C8.19339 8.88756 8.10884 8.97211 8.00453 8.97211Z" fill="#103E13"/>
<path d="M9.59242 10.2844C9.48825 10.2844 9.40356 10.1998 9.40356 10.0955V9.77455C9.40356 9.67038 9.48812 9.58569 9.59242 9.58569C9.6966 9.58569 9.78128 9.67024 9.78128 9.77455V10.0955C9.78128 10.1998 9.6966 10.2844 9.59242 10.2844Z" fill="#103E13"/>
<path d="M8.79848 10.2844C8.6943 10.2844 8.60962 10.1998 8.60962 10.0955V9.77455C8.60962 9.67038 8.69417 9.58569 8.79848 9.58569C8.90265 9.58569 8.98734 9.67024 8.98734 9.77455V10.0955C8.98721 10.1998 8.90279 10.2844 8.79848 10.2844Z" fill="#103E13"/>
<path d="M8.00453 10.2844C7.90036 10.2844 7.81567 10.1998 7.81567 10.0955V9.77455C7.81567 9.67038 7.90023 9.58569 8.00453 9.58569C8.10871 9.58569 8.19339 9.67024 8.19339 9.77455V10.0955C8.19339 10.1998 8.10884 10.2844 8.00453 10.2844Z" fill="#103E13"/>
<path d="M9.59242 11.5969C9.48825 11.5969 9.40356 11.5123 9.40356 11.408V11.0872C9.40356 10.983 9.48812 10.8983 9.59242 10.8983C9.6966 10.8983 9.78128 10.9829 9.78128 11.0872V11.408C9.78128 11.5122 9.6966 11.5969 9.59242 11.5969Z" fill="#103E13"/>
<path d="M8.79848 11.5969C8.6943 11.5969 8.60962 11.5123 8.60962 11.408V11.0872C8.60962 10.983 8.69417 10.8983 8.79848 10.8983C8.90265 10.8983 8.98734 10.9829 8.98734 11.0872V11.408C8.98721 11.5122 8.90279 11.5969 8.79848 11.5969Z" fill="#103E13"/>
<path d="M8.00453 11.5969C7.90036 11.5969 7.81567 11.5123 7.81567 11.408L7.81581 11.0872C7.81581 10.983 7.90036 10.8983 8.00467 10.8983C8.10884 10.8983 8.19353 10.9829 8.19353 11.0872V11.408C8.19339 11.5122 8.10884 11.5969 8.00453 11.5969V11.5969Z" fill="#103E13"/>
<path d="M2.60929 12.9029C2.60929 13.0071 2.69384 13.0918 2.79815 13.0918H14.2991C14.4033 13.0918 14.488 13.0073 14.488 12.9029C14.488 12.7988 14.4034 12.7141 14.2991 12.7141H13.95V7.29166C13.95 7.18749 13.8654 7.1028 13.7611 7.1028L10.6776 7.10293V3.19365C10.6776 3.12754 10.6431 3.06643 10.5867 3.03218C10.5305 2.99781 10.4602 2.9957 10.4017 3.02613L6.896 4.85137C6.83344 4.8839 6.79446 4.94843 6.79446 5.01889V8.43358H3.40169C3.29752 8.43358 3.21283 8.51813 3.21283 8.62244V12.7141H2.79773C2.69355 12.714 2.60913 12.7985 2.60913 12.9028L2.60929 12.9029ZM10.6777 9.96328H13.5724V12.7142L10.6777 12.7141V9.96328ZM10.6777 8.65088H13.5724V9.5857L10.6777 9.58557V8.65088ZM10.6777 7.48045H13.5724V8.27344H10.6777V7.48045ZM7.17198 5.13357L10.2998 3.50495V12.7139H7.17198V5.13357ZM4.52415 11.2057C4.52415 10.8137 4.8347 10.4948 5.21649 10.4948C5.59829 10.4948 5.90897 10.8136 5.90897 11.2057V12.7142H4.52415V11.2057ZM3.59054 8.81123H6.7944V12.7141H6.28668V11.2056C6.28668 10.6055 5.80678 10.1171 5.21649 10.1171C4.62647 10.1171 4.14657 10.6053 4.14657 11.2056V12.7141H3.59054V8.81123Z" fill="#103E13"/>
</svg>
