<svg width="17" height="17" viewBox="0 0 17 17" fill="none" xmlns="http://www.w3.org/2000/svg">
<path d="M14.2028 14.0224V12.6869C14.2028 11.9785 13.9214 11.2992 13.4205 10.7983C12.9196 10.2974 12.2402 10.016 11.5318 10.016H10.8641C10.687 10.016 10.5172 9.94562 10.3919 9.8204C10.2667 9.69517 10.1964 9.52533 10.1964 9.34824V6.00957C10.1964 5.65538 10.0557 5.3157 9.80522 5.06526C9.55478 4.81481 9.2151 4.67411 8.86091 4.67411V4.67411C8.50672 4.67411 8.16704 4.81481 7.91659 5.06526C7.66614 5.3157 7.52544 5.65538 7.52544 6.00957V12.0192L5.92288 9.88242C5.79849 9.71656 5.63718 9.58194 5.45175 9.48923C5.26631 9.39651 5.06183 9.34824 4.85451 9.34824H4.56471C3.98712 9.34824 3.51904 9.81632 3.51904 10.3939C3.51904 10.5835 3.57046 10.7698 3.66795 10.9321L5.52224 14.0224M8.86091 2.67091V2.00317ZM12.8673 6.67731H13.535ZM4.18678 6.67731H4.85451ZM5.75127 3.56767L5.27919 3.09559ZM11.9705 3.56767L12.4426 3.09559Z" fill="#4CAF4F"/>
<path d="M14.2028 14.0224V12.6869C14.2028 11.9785 13.9214 11.2992 13.4205 10.7983C12.9196 10.2974 12.2402 10.016 11.5318 10.016H10.8641C10.687 10.016 10.5172 9.94562 10.3919 9.8204C10.2667 9.69517 10.1964 9.52533 10.1964 9.34824V6.00957C10.1964 5.65538 10.0557 5.3157 9.80522 5.06526C9.55478 4.81481 9.2151 4.67411 8.86091 4.67411V4.67411C8.50672 4.67411 8.16704 4.81481 7.91659 5.06526C7.66614 5.3157 7.52544 5.65538 7.52544 6.00957V12.0192L5.92288 9.88242C5.79849 9.71656 5.63718 9.58194 5.45175 9.48923C5.26631 9.39651 5.06183 9.34824 4.85451 9.34824H4.56471C3.98712 9.34824 3.51904 9.81632 3.51904 10.3939C3.51904 10.5835 3.57046 10.7698 3.66795 10.9321L5.52224 14.0224M8.86091 2.67091V2.00317M12.8673 6.67731H13.535M4.18678 6.67731H4.85451M5.75127 3.56767L5.27919 3.09559M11.9705 3.56767L12.4426 3.09559" stroke="#4CAF4F" stroke-width="0.667733" stroke-linecap="round" stroke-linejoin="round"/>
</svg>
