<svg width="22" height="19" viewBox="0 0 22 19" fill="none" xmlns="http://www.w3.org/2000/svg">
<path d="M21.9131 12.6869C21.9131 16.0059 19.2225 18.6965 15.9035 18.6965L6.88909 18.6965C5.96715 18.6965 5.21976 17.9491 5.21976 17.0272L5.21976 5.67573C5.21976 3.83184 6.71453 2.33707 8.55843 2.33707L20.2438 2.33707C21.1657 2.33707 21.9131 3.08446 21.9131 4.00641L21.9131 12.6869Z" fill="#E8F5E9"/>
<path d="M8.22112 3.33862C7.0288 3.33862 6.05815 4.31815 6.05815 5.51555C6.05815 6.27303 6.44712 6.94186 7.03449 7.33172C6.32507 7.56893 5.71122 8.01226 5.26099 8.59224C5.01207 8.40077 4.73393 8.24679 4.43409 8.13645C4.88878 7.7989 5.1859 7.25666 5.1859 6.64723C5.1859 5.6317 4.36456 4.80035 3.35518 4.80035C2.3458 4.80035 1.52446 5.6317 1.52446 6.64723C1.52446 7.25701 1.82183 7.7995 2.2769 8.13705C1.07211 8.58164 0.21167 9.74561 0.21167 11.1155V12.0777C0.211793 12.1511 0.241136 12.2214 0.293163 12.273C0.34519 12.3248 0.415589 12.3536 0.488945 12.3534H4.71068C4.72091 12.3545 4.73114 12.3551 4.74137 12.355H11.7011C11.7113 12.3551 11.7217 12.3545 11.7318 12.3534H15.9539C16.1056 12.3528 16.2285 12.2296 16.2289 12.0777V11.1155C16.2289 9.74561 15.3699 8.58164 14.1658 8.13693C14.6209 7.7995 14.9182 7.25688 14.9182 6.64711C14.9182 5.63157 14.0969 4.80023 13.0875 4.80023C12.0782 4.80023 11.2568 5.63157 11.2568 6.64711C11.2568 7.25654 11.554 7.79887 12.0087 8.13633C11.7083 8.24692 11.43 8.4014 11.1807 8.59334C10.7307 8.01301 10.1177 7.56906 9.40833 7.33172C9.99554 6.94186 10.3847 6.27303 10.3847 5.51555C10.3847 4.31815 9.41351 3.33862 8.22119 3.33862H8.22112ZM8.22112 3.89096C9.11287 3.89096 9.83176 4.61467 9.83176 5.51555C9.83176 6.40938 9.12408 7.12606 8.2422 7.13755C8.23518 7.13755 8.22827 7.13656 8.22112 7.13656C8.21397 7.13656 8.20719 7.13755 8.20004 7.13755C7.31817 7.12621 6.61096 6.40941 6.61096 5.51555C6.61096 4.61455 7.32925 3.89096 8.221 3.89096H8.22112ZM3.35521 5.35266C4.06277 5.35266 4.6336 5.92693 4.6336 6.6472C4.6336 7.36265 4.07015 7.93446 3.36926 7.94222C3.36457 7.94222 3.36001 7.94173 3.3552 7.94173C3.35052 7.94173 3.34595 7.94222 3.34115 7.94222C2.64025 7.93445 2.07681 7.36252 2.07681 6.6472C2.07681 5.92696 2.64764 5.35266 3.35519 5.35266H3.35521ZM13.0873 5.35266C13.7949 5.35266 14.3657 5.92693 14.3657 6.6472C14.3657 7.36265 13.8023 7.93446 13.1014 7.94222C13.0967 7.94222 13.0921 7.94173 13.0873 7.94173C13.0827 7.94173 13.0781 7.94222 13.0733 7.94222C12.3724 7.93445 11.8089 7.36252 11.8089 6.6472C11.8089 5.92696 12.3798 5.35266 13.0873 5.35266H13.0873ZM8.19997 7.68985C8.207 7.68998 8.21391 7.69084 8.22106 7.69084C8.22809 7.69084 8.23499 7.68985 8.24214 7.68985C10.0107 7.70119 11.4261 9.12876 11.4261 10.9158L11.426 11.8025H5.01638V10.9158C5.01638 9.1286 6.43137 7.70121 8.19972 7.68985H8.19997ZM3.33406 8.49519C3.34109 8.49531 3.348 8.49617 3.35515 8.49617C3.3623 8.49617 3.36908 8.49519 3.37623 8.49519C3.97442 8.5 4.52035 8.70626 4.95505 9.05134C4.644 9.60172 4.46411 10.237 4.46411 10.916V11.8005H0.763782V11.1154C0.763782 9.66308 1.90569 8.50652 3.334 8.49506L3.33406 8.49519ZM13.0662 8.49519C13.0734 8.49531 13.0801 8.49617 13.0873 8.49617C13.0944 8.49617 13.1012 8.49519 13.1084 8.49519C14.5367 8.50653 15.6786 9.66323 15.6786 11.1156V11.8005H11.9764L11.9762 10.916C11.9762 10.2374 11.7969 9.60257 11.4864 9.05232C11.9212 8.70675 12.4675 8.49998 13.0662 8.49519H13.0662Z" fill="#103E13"/>
</svg>
