<svg width="17" height="17" viewBox="0 0 17 17" fill="none" xmlns="http://www.w3.org/2000/svg">
<path d="M1.83613 5.50883V5.67576H2.00306H14.0223H14.1892V5.50883V4.75763C14.1892 4.3813 14.0397 4.02039 13.7736 3.75429C13.5075 3.48819 13.1466 3.33869 12.7703 3.33869H3.25506C2.87874 3.33869 2.51783 3.48819 2.25173 3.75429C1.98563 4.02039 1.83613 4.3813 1.83613 4.75763V5.50883ZM14.1892 6.51043V6.34349H14.0223H2.00306H1.83613V6.51043V11.268C1.83613 11.6444 1.98563 12.0053 2.25173 12.2714C2.51783 12.5375 2.87874 12.687 3.25506 12.687H12.7703C13.1466 12.687 13.5075 12.5375 13.7736 12.2714C14.0397 12.0053 14.1892 11.6444 14.1892 11.268V6.51043ZM1.1684 4.75763C1.1684 4.20421 1.38824 3.67346 1.77957 3.28213C2.17089 2.89081 2.70165 2.67096 3.25506 2.67096H12.7703C13.3237 2.67096 13.8544 2.89081 14.2458 3.28213C14.6371 3.67346 14.8569 4.20421 14.8569 4.75763V11.268C14.8569 11.8214 14.6371 12.3522 14.2458 12.7435C13.8544 13.1348 13.3237 13.3547 12.7703 13.3547H3.25506C2.70165 13.3547 2.17089 13.1348 1.77957 12.7435C1.38824 12.3522 1.1684 11.8214 1.1684 11.268V4.75763ZM10.5167 9.68216H12.0191C12.1076 9.68216 12.1925 9.71733 12.2551 9.77995C12.3178 9.84256 12.3529 9.92748 12.3529 10.016C12.3529 10.1046 12.3178 10.1895 12.2551 10.2521C12.1925 10.3147 12.1076 10.3499 12.0191 10.3499H10.5167C10.4281 10.3499 10.3432 10.3147 10.2806 10.2521C10.218 10.1895 10.1828 10.1046 10.1828 10.016C10.1828 9.92748 10.218 9.84256 10.2806 9.77995C10.3432 9.71733 10.4281 9.68216 10.5167 9.68216Z" fill="#4CAF4F" stroke="#4CAF4F" stroke-width="0.333867"/>
</svg>
