<svg width="17" height="17" viewBox="0 0 17 17" fill="none" xmlns="http://www.w3.org/2000/svg">
<mask id="path-1-inside-1_316_1425" fill="white">
<path d="M9.45219 8.53952C9.3718 8.53952 9.29716 8.51742 9.23085 8.48187V8.48281C9.23085 8.60929 9.18169 8.72807 9.09249 8.81704C9.00329 8.90624 8.8846 8.9554 8.75826 8.9554C8.6767 8.9554 8.6011 8.93274 8.53408 8.89625C8.52732 9.01195 8.48107 9.1201 8.39856 9.2027C8.30936 9.2919 8.19067 9.34106 8.06425 9.34106C7.81309 9.34106 7.60912 9.14363 7.59442 8.89617C7.51671 8.93817 7.42885 8.9602 7.33823 8.95438C7.09115 8.93817 6.89766 8.7247 6.89766 8.46826V6.34265L6.65562 6.76197C6.56343 6.92236 6.39087 7.02193 6.20507 7.02193C6.11453 7.02193 6.0251 6.99818 5.94589 6.95279C5.84725 6.89561 5.7767 6.80382 5.74735 6.694C5.71786 6.58411 5.73312 6.46919 5.79014 6.37071C5.79022 6.37071 6.58207 4.99945 6.63038 4.91522C6.63612 4.90256 6.65248 4.86582 6.66641 4.83452C6.6797 4.80463 6.69111 4.77395 6.70204 4.74312C6.94084 4.06895 7.53213 3.65017 8.24524 3.65017C9.17128 3.65017 9.92467 4.4671 9.92467 5.47127L9.92474 8.06687C9.92474 8.19319 9.87566 8.31189 9.78654 8.40117C9.69734 8.49037 9.57865 8.53953 9.45217 8.53953L9.45219 8.53952ZM8.24525 3.90128C7.63249 3.90128 7.1441 4.24739 6.93873 4.8271C6.9256 4.86391 6.91191 4.90072 6.89594 4.93659C6.84961 5.0405 6.84961 5.0405 6.83655 5.05544L6.83482 5.05395C6.77017 5.17595 6.57808 5.50859 6.00758 6.49639C5.98413 6.53689 5.97792 6.58393 5.98988 6.62892C6.00199 6.67392 6.03102 6.71183 6.07121 6.73503C6.19596 6.80669 6.36681 6.76044 6.43792 6.63655L6.91451 5.81142C6.94298 5.76226 7.00056 5.73811 7.05578 5.75306C7.11068 5.76777 7.14883 5.81756 7.14883 5.87435V8.46833C7.14883 8.59072 7.24117 8.69636 7.35469 8.70383C7.42013 8.70729 7.48117 8.68534 7.52703 8.63957C7.56871 8.59788 7.59168 8.54234 7.59168 8.48296V6.78646C7.59168 6.71708 7.64792 6.66084 7.7173 6.66084C7.78668 6.66084 7.84292 6.717 7.84292 6.78646L7.84284 8.86857C7.84284 8.99065 7.94218 9.08999 8.06426 9.08999C8.12357 9.08999 8.17926 9.06702 8.22103 9.02534C8.26272 8.98357 8.28568 8.92788 8.28568 8.86857V6.78645C8.28568 6.71708 8.34185 6.66084 8.4113 6.66084C8.48068 6.66084 8.53692 6.717 8.53692 6.78645L8.53684 8.46344V8.48295C8.53684 8.60495 8.63619 8.70429 8.75834 8.70429C8.81757 8.70429 8.8731 8.68124 8.91511 8.6394C8.9568 8.59779 8.97976 8.54225 8.97976 8.48287V6.78637C8.97976 6.71699 9.03593 6.66075 9.10538 6.66075C9.17476 6.66075 9.231 6.71691 9.231 6.78637L9.23084 8.06693C9.23084 8.18908 9.33019 8.28843 9.45218 8.28843C9.51157 8.28843 9.5671 8.26538 9.60879 8.22377C9.65064 8.18193 9.67353 8.12624 9.67353 8.06693L9.6736 5.47133C9.6736 4.6057 9.03286 3.90131 8.24524 3.90131L8.24525 3.90128Z"/>
</mask>
<path d="M9.45219 8.53952C9.3718 8.53952 9.29716 8.51742 9.23085 8.48187V8.48281C9.23085 8.60929 9.18169 8.72807 9.09249 8.81704C9.00329 8.90624 8.8846 8.9554 8.75826 8.9554C8.6767 8.9554 8.6011 8.93274 8.53408 8.89625C8.52732 9.01195 8.48107 9.1201 8.39856 9.2027C8.30936 9.2919 8.19067 9.34106 8.06425 9.34106C7.81309 9.34106 7.60912 9.14363 7.59442 8.89617C7.51671 8.93817 7.42885 8.9602 7.33823 8.95438C7.09115 8.93817 6.89766 8.7247 6.89766 8.46826V6.34265L6.65562 6.76197C6.56343 6.92236 6.39087 7.02193 6.20507 7.02193C6.11453 7.02193 6.0251 6.99818 5.94589 6.95279C5.84725 6.89561 5.7767 6.80382 5.74735 6.694C5.71786 6.58411 5.73312 6.46919 5.79014 6.37071C5.79022 6.37071 6.58207 4.99945 6.63038 4.91522C6.63612 4.90256 6.65248 4.86582 6.66641 4.83452C6.6797 4.80463 6.69111 4.77395 6.70204 4.74312C6.94084 4.06895 7.53213 3.65017 8.24524 3.65017C9.17128 3.65017 9.92467 4.4671 9.92467 5.47127L9.92474 8.06687C9.92474 8.19319 9.87566 8.31189 9.78654 8.40117C9.69734 8.49037 9.57865 8.53953 9.45217 8.53953L9.45219 8.53952ZM8.24525 3.90128C7.63249 3.90128 7.1441 4.24739 6.93873 4.8271C6.9256 4.86391 6.91191 4.90072 6.89594 4.93659C6.84961 5.0405 6.84961 5.0405 6.83655 5.05544L6.83482 5.05395C6.77017 5.17595 6.57808 5.50859 6.00758 6.49639C5.98413 6.53689 5.97792 6.58393 5.98988 6.62892C6.00199 6.67392 6.03102 6.71183 6.07121 6.73503C6.19596 6.80669 6.36681 6.76044 6.43792 6.63655L6.91451 5.81142C6.94298 5.76226 7.00056 5.73811 7.05578 5.75306C7.11068 5.76777 7.14883 5.81756 7.14883 5.87435V8.46833C7.14883 8.59072 7.24117 8.69636 7.35469 8.70383C7.42013 8.70729 7.48117 8.68534 7.52703 8.63957C7.56871 8.59788 7.59168 8.54234 7.59168 8.48296V6.78646C7.59168 6.71708 7.64792 6.66084 7.7173 6.66084C7.78668 6.66084 7.84292 6.717 7.84292 6.78646L7.84284 8.86857C7.84284 8.99065 7.94218 9.08999 8.06426 9.08999C8.12357 9.08999 8.17926 9.06702 8.22103 9.02534C8.26272 8.98357 8.28568 8.92788 8.28568 8.86857V6.78645C8.28568 6.71708 8.34185 6.66084 8.4113 6.66084C8.48068 6.66084 8.53692 6.717 8.53692 6.78645L8.53684 8.46344V8.48295C8.53684 8.60495 8.63619 8.70429 8.75834 8.70429C8.81757 8.70429 8.8731 8.68124 8.91511 8.6394C8.9568 8.59779 8.97976 8.54225 8.97976 8.48287V6.78637C8.97976 6.71699 9.03593 6.66075 9.10538 6.66075C9.17476 6.66075 9.231 6.71691 9.231 6.78637L9.23084 8.06693C9.23084 8.18908 9.33019 8.28843 9.45218 8.28843C9.51157 8.28843 9.5671 8.26538 9.60879 8.22377C9.65064 8.18193 9.67353 8.12624 9.67353 8.06693L9.6736 5.47133C9.6736 4.6057 9.03286 3.90131 8.24524 3.90131L8.24525 3.90128Z" fill="#4CAF4F"/>
<path d="M9.45219 8.53952V8.09437H11.0249L9.6855 8.91865L9.45219 8.53952ZM9.23085 8.48187H8.78569V7.73806L9.44121 8.08955L9.23085 8.48187ZM9.09249 8.81704L8.77772 8.50227L8.77813 8.50185L9.09249 8.81704ZM8.53408 8.89625L8.08969 8.87027L8.13065 8.16966L8.74698 8.5053L8.53408 8.89625ZM8.39856 9.2027L8.71349 9.51731L8.71333 9.51748L8.39856 9.2027ZM7.59442 8.89617L7.38277 8.50455L7.99737 8.17237L8.0388 8.86977L7.59442 8.89617ZM7.33823 8.95438L7.30969 9.39862L7.3091 9.39858L7.33823 8.95438ZM6.89766 6.34265L6.51212 6.12011L7.34282 4.68098V6.34265H6.89766ZM6.65562 6.76197L6.26968 6.54013L6.27008 6.53943L6.65562 6.76197ZM5.94589 6.95279L5.72457 7.33904L5.72262 7.33791L5.94589 6.95279ZM5.74735 6.694L6.17729 6.57859L6.17742 6.57909L5.74735 6.694ZM5.79014 6.37071L5.40491 6.14764L5.53351 5.92555H5.79014V6.37071ZM6.63038 4.91522L7.03581 5.09905L7.02707 5.11832L7.01654 5.13668L6.63038 4.91522ZM6.66641 4.83452L6.25966 4.65363L6.25966 4.65362L6.66641 4.83452ZM6.70204 4.74312L7.12165 4.89175L7.12161 4.89187L6.70204 4.74312ZM9.92467 5.47127L9.47951 5.47129V5.47127H9.92467ZM9.92474 8.06687L10.3699 8.06686V8.06687H9.92474ZM9.78654 8.40117L10.1016 8.71566L10.1013 8.71595L9.78654 8.40117ZM9.45217 8.53953V8.98469H7.87942L9.21887 8.16041L9.45217 8.53953ZM8.24525 3.90128V3.45613H8.8354L8.67328 4.02357L8.24525 3.90128ZM6.93873 4.8271L7.35833 4.97575L7.35799 4.97671L6.93873 4.8271ZM6.89594 4.93659L7.30262 5.11763L7.30251 5.11787L6.89594 4.93659ZM6.83655 5.05544L7.17178 5.34834L6.88056 5.68164L6.54559 5.39234L6.83655 5.05544ZM6.83482 5.05395L6.44149 4.84549L6.70305 4.35196L7.12579 4.71704L6.83482 5.05395ZM6.00758 6.49639L6.39306 6.71902L6.39287 6.71934L6.00758 6.49639ZM5.98988 6.62892L5.56003 6.74465L5.55966 6.74326L5.98988 6.62892ZM6.07121 6.73503L5.84949 7.12104L5.84865 7.12056L6.07121 6.73503ZM6.43792 6.63655L6.05183 6.41497L6.05244 6.41391L6.43792 6.63655ZM6.91451 5.81142L6.52903 5.58877L6.5293 5.5883L6.91451 5.81142ZM7.05578 5.75306L6.94058 6.18305L6.93948 6.18275L7.05578 5.75306ZM7.35469 8.70383L7.33117 9.1484L7.32545 9.14802L7.35469 8.70383ZM7.52703 8.63957L7.8418 8.95434L7.84152 8.95461L7.52703 8.63957ZM7.84292 6.78646L8.28807 6.78646L8.28807 6.78647L7.84292 6.78646ZM7.84284 8.86857L7.39768 8.86857L7.39768 8.86855L7.84284 8.86857ZM8.22103 9.02534L8.5361 9.33981L8.5355 9.34041L8.22103 9.02534ZM8.53692 6.78645L8.98207 6.78645L8.98207 6.78648L8.53692 6.78645ZM8.53684 8.46344L8.09168 8.46344L8.09168 8.46342L8.53684 8.46344ZM8.91511 8.6394L9.22958 8.95447L9.22929 8.95476L8.91511 8.6394ZM9.231 6.78637L9.67616 6.78637L9.67616 6.78642L9.231 6.78637ZM9.23084 8.06693L8.78569 8.06693L8.78569 8.06687L9.23084 8.06693ZM9.60879 8.22377L9.92356 8.53855L9.92327 8.53884L9.60879 8.22377ZM9.67353 8.06693L9.22837 8.06693L9.22837 8.06691L9.67353 8.06693ZM9.6736 5.47133L10.1188 5.47133L10.1188 5.47134L9.6736 5.47133ZM8.24524 3.90131V4.34646H7.65509L7.81721 3.77901L8.24524 3.90131ZM9.45219 8.98468C9.28827 8.98468 9.14194 8.9393 9.02049 8.87418L9.44121 8.08955C9.44696 8.09264 9.45061 8.09381 9.45206 8.09421C9.45331 8.09454 9.45314 8.09437 9.45219 8.09437V8.98468ZM9.67601 8.48187V8.48281H8.78569V8.48187H9.67601ZM9.67601 8.48281C9.67601 8.72699 9.58019 8.95934 9.40685 9.13223L8.77813 8.50185C8.78131 8.49868 8.78289 8.49595 8.78381 8.49373C8.78473 8.4915 8.78569 8.48808 8.78569 8.48281H9.67601ZM9.40726 9.13181C9.23451 9.30456 9.00256 9.40055 8.75826 9.40055V8.51024C8.76337 8.51024 8.76673 8.50931 8.76901 8.50837C8.77129 8.50743 8.77424 8.50574 8.77772 8.50227L9.40726 9.13181ZM8.75826 9.40055C8.59221 9.40055 8.44404 9.35409 8.32119 9.28719L8.74698 8.5053C8.75278 8.50846 8.75645 8.50966 8.75791 8.51006C8.75916 8.5104 8.75906 8.51024 8.75826 8.51024V9.40055ZM8.97848 8.92223C8.96567 9.14134 8.87679 9.35385 8.71349 9.51731L8.08362 8.8881C8.08527 8.88644 8.08623 8.88498 8.08703 8.88314C8.08791 8.88114 8.08929 8.87706 8.08969 8.87027L8.97848 8.92223ZM8.71333 9.51748C8.54055 9.69026 8.30859 9.78622 8.06425 9.78622V8.89591C8.06943 8.89591 8.07282 8.89497 8.0751 8.89403C8.07737 8.89308 8.08031 8.89141 8.08378 8.88793L8.71333 9.51748ZM8.06425 9.78622C7.5728 9.78622 7.17844 9.40051 7.15005 8.92257L8.0388 8.86977C8.03925 8.87734 8.04234 8.88399 8.04782 8.88921C8.0505 8.89176 8.05321 8.8934 8.05557 8.89436C8.05764 8.89521 8.06027 8.89591 8.06425 8.89591V9.78622ZM7.80608 9.28779C7.66229 9.3655 7.49181 9.41031 7.30969 9.39861L7.36677 8.51014C7.36677 8.51014 7.36772 8.51023 7.37007 8.50968C7.37258 8.5091 7.37694 8.5077 7.38277 8.50455L7.80608 9.28779ZM7.3091 9.39858C6.81483 9.36616 6.45251 8.94583 6.45251 8.46826H7.34282C7.34282 8.48331 7.34828 8.4949 7.35513 8.50246C7.36181 8.50982 7.36634 8.51011 7.36736 8.51017L7.3091 9.39858ZM6.45251 8.46826V6.34265H7.34282V8.46826H6.45251ZM7.2832 6.56519L7.04116 6.98451L6.27008 6.53943L6.51212 6.12011L7.2832 6.56519ZM7.04156 6.98381C6.86955 7.28307 6.54937 7.46709 6.20507 7.46709V6.57678C6.23236 6.57678 6.25731 6.56164 6.26968 6.54014L7.04156 6.98381ZM6.20507 7.46709C6.03672 7.46709 5.87101 7.42295 5.72457 7.33903L6.16721 6.56655C6.17918 6.57341 6.19233 6.57678 6.20507 6.57678V7.46709ZM5.72262 7.33791C5.52276 7.22204 5.37729 7.03348 5.31728 6.80891L6.17742 6.57909C6.17702 6.57757 6.17591 6.57489 6.17376 6.57209C6.17164 6.56932 6.16967 6.56797 6.16916 6.56768L5.72262 7.33791ZM5.31742 6.80941C5.25718 6.585 5.28872 6.34831 5.40491 6.14764L6.17538 6.59377C6.17601 6.59268 6.17713 6.59014 6.1776 6.58654C6.17808 6.58293 6.17768 6.58005 6.17729 6.57859L5.31742 6.80941ZM5.79014 5.92555C5.57178 5.98279 5.40833 6.14183 5.40711 6.14389C5.40671 6.14457 5.4061 6.1456 5.40591 6.14593C5.4058 6.14612 5.40561 6.14645 5.40554 6.14655C5.4055 6.14662 5.40542 6.14676 5.4054 6.1468C5.40534 6.14691 5.40536 6.14687 5.40553 6.14658C5.40583 6.14606 5.40634 6.14518 5.40708 6.14391C5.40854 6.14138 5.41073 6.13758 5.41364 6.13255C5.41943 6.12253 5.42795 6.10778 5.43882 6.08896C5.46057 6.05132 5.49168 5.99744 5.52918 5.93251C5.60418 5.80265 5.70467 5.62863 5.80666 5.45197C6.011 5.09805 6.2205 4.73513 6.24422 4.69375L7.01654 5.13668C6.99196 5.17954 6.78137 5.54436 6.57769 5.89713C6.47568 6.07382 6.37517 6.24787 6.30016 6.37776C6.26266 6.4427 6.23152 6.49661 6.20976 6.53428C6.19888 6.55312 6.19033 6.56792 6.18449 6.57802C6.18158 6.58306 6.17932 6.58697 6.17777 6.58964C6.17701 6.59096 6.17638 6.59205 6.17592 6.59284C6.1757 6.59321 6.17544 6.59368 6.17518 6.59412C6.17509 6.59428 6.1748 6.59477 6.17446 6.59536C6.17424 6.59573 6.17361 6.59679 6.1732 6.5975C6.17196 6.59957 6.00851 6.75862 5.79014 6.81586V5.92555ZM6.22495 4.73139C6.22985 4.72058 6.24538 4.68574 6.25966 4.65363L7.07315 5.0154C7.05959 5.04591 7.04239 5.08453 7.03581 5.09905L6.22495 4.73139ZM6.25966 4.65362C6.26585 4.63971 6.2727 4.62194 6.28247 4.59436L7.12161 4.89187C7.10952 4.92596 7.09355 4.96954 7.07315 5.01541L6.25966 4.65362ZM6.28243 4.59449C6.58393 3.7433 7.34281 3.20501 8.24524 3.20501V4.09532C7.72144 4.09532 7.29775 4.39459 7.12165 4.89175L6.28243 4.59449ZM8.24524 3.20501C9.45039 3.20501 10.3698 4.25588 10.3698 5.47127H9.47951C9.47951 4.67832 8.89217 4.09532 8.24524 4.09532V3.20501ZM10.3698 5.47126L10.3699 8.06686L9.47959 8.06688L9.47951 5.47129L10.3698 5.47126ZM10.3699 8.06687C10.3699 8.31098 10.2741 8.54282 10.1016 8.71566L9.47148 8.08669C9.475 8.08317 9.47671 8.08017 9.47768 8.07783C9.47865 8.07549 9.47959 8.07206 9.47959 8.06687H10.3699ZM10.1013 8.71595C9.92851 8.88875 9.69654 8.98469 9.45217 8.98469V8.09438C9.45741 8.09438 9.46082 8.09343 9.46309 8.09249C9.46536 8.09155 9.4683 8.08987 9.47177 8.0864L10.1013 8.71595ZM9.21887 8.16041L9.21889 8.1604L9.6855 8.91865L9.68548 8.91866L9.21887 8.16041ZM8.24525 4.34644C7.82201 4.34644 7.50107 4.57285 7.35833 4.97575L6.51913 4.67845C6.78714 3.92193 7.44298 3.45613 8.24525 3.45613V4.34644ZM7.35799 4.97671C7.34394 5.01609 7.32569 5.06582 7.30262 5.11763L6.48926 4.75555C6.49813 4.73562 6.50725 4.71173 6.51947 4.67749L7.35799 4.97671ZM7.30251 5.11787C7.28213 5.16359 7.26505 5.2022 7.25198 5.22835C7.24387 5.24459 7.23074 5.2696 7.21169 5.29731C7.1924 5.32539 7.17333 5.34656 7.17178 5.34834L6.50133 4.76254C6.50238 4.76135 6.50203 4.76174 6.50151 4.76235C6.50083 4.76314 6.4991 4.76516 6.49683 4.76792C6.49176 4.7741 6.48512 4.78262 6.47796 4.79304C6.46404 4.8133 6.45625 4.82902 6.45556 4.8304C6.45505 4.83141 6.45537 4.83082 6.45688 4.82758C6.45835 4.82444 6.46042 4.81992 6.4634 4.81334C6.46948 4.7999 6.47757 4.78178 6.48937 4.75531L7.30251 5.11787ZM6.54559 5.39234L6.54386 5.39085L7.12579 4.71704L7.12752 4.71854L6.54559 5.39234ZM7.22816 5.2624C7.15848 5.39386 6.95959 5.73812 6.39306 6.71902L5.62209 6.27375C6.19658 5.27906 6.38185 4.95803 6.44149 4.84549L7.22816 5.2624ZM6.39287 6.71934C6.42849 6.65779 6.43842 6.58352 6.4201 6.51459L5.55966 6.74326C5.51742 6.58434 5.53978 6.416 5.62228 6.27343L6.39287 6.71934ZM6.41973 6.5132C6.40141 6.44516 6.35639 6.38565 6.29377 6.3495L5.84865 7.12056C5.70565 7.03801 5.60257 6.90268 5.56003 6.74465L6.41973 6.5132ZM6.29293 6.34903C6.24226 6.31992 6.19298 6.32011 6.15895 6.32927C6.12505 6.3384 6.08158 6.36312 6.05183 6.41497L6.824 6.85814C6.62999 7.19617 6.18661 7.31469 5.84949 7.12104L6.29293 6.34903ZM6.05244 6.41391L6.52903 5.58877L7.29998 6.03407L6.82339 6.8592L6.05244 6.41391ZM6.5293 5.5883C6.65788 5.36632 6.92033 5.25522 7.17208 5.32336L6.93948 6.18275C7.08079 6.221 7.22808 6.1582 7.29971 6.03454L6.5293 5.5883ZM7.17097 5.32306C7.42071 5.38997 7.59399 5.61629 7.59399 5.87435H6.70368C6.70368 6.01882 6.80065 6.14556 6.94058 6.18305L7.17097 5.32306ZM7.59399 5.87435V8.46833H6.70368V5.87435H7.59399ZM7.59399 8.46833C7.59399 8.41761 7.5752 8.37149 7.54435 8.3362C7.51355 8.30097 7.4592 8.26459 7.38392 8.25963L7.32545 9.14802C6.95071 9.12336 6.70368 8.79693 6.70368 8.46833H7.59399ZM7.3782 8.25929C7.3256 8.25651 7.26135 8.27578 7.21253 8.32452L7.84152 8.95461C7.70098 9.09491 7.51466 9.15807 7.33118 9.14836L7.3782 8.25929ZM7.21225 8.32479C7.17001 8.36704 7.14653 8.42492 7.14653 8.48296H8.03684C8.03684 8.65977 7.96742 8.82871 7.8418 8.95434L7.21225 8.32479ZM7.14653 8.48296V6.78646H8.03684V8.48296H7.14653ZM7.14653 6.78646C7.14653 6.47123 7.40207 6.21568 7.7173 6.21568V7.10599C7.89378 7.10599 8.03684 6.96293 8.03684 6.78646H7.14653ZM7.7173 6.21568C8.03235 6.21568 8.28807 6.47097 8.28807 6.78646H7.39776C7.39776 6.96303 7.541 7.10599 7.7173 7.10599V6.21568ZM8.28807 6.78647L8.28799 8.86859L7.39768 8.86855L7.39776 6.78644L8.28807 6.78647ZM8.28799 8.86857C8.28799 8.74479 8.18803 8.64484 8.06426 8.64484V9.53515C7.69633 9.53515 7.39768 9.2365 7.39768 8.86857H8.28799ZM8.06426 8.64484C8.00632 8.64484 7.94872 8.66818 7.90656 8.71026L8.5355 9.34041C8.4098 9.46587 8.24081 9.53515 8.06426 9.53515V8.64484ZM7.90596 8.71086C7.86387 8.75303 7.84053 8.81064 7.84053 8.86857H8.73084C8.73084 9.04512 8.66156 9.21411 8.5361 9.33981L7.90596 8.71086ZM7.84053 8.86857V6.78645H8.73084V8.86857H7.84053ZM7.84053 6.78645C7.84053 6.47141 8.09581 6.21568 8.4113 6.21568V7.10599C8.58788 7.10599 8.73084 6.96275 8.73084 6.78645H7.84053ZM8.4113 6.21568C8.72635 6.21568 8.98207 6.47097 8.98207 6.78645H8.09176C8.09176 6.96303 8.23501 7.10599 8.4113 7.10599V6.21568ZM8.98207 6.78648L8.982 8.46346L8.09168 8.46342L8.09176 6.78643L8.98207 6.78648ZM8.982 8.46344V8.48295H8.09168V8.46344H8.982ZM8.982 8.48295C8.982 8.35888 8.88182 8.25914 8.75834 8.25914V9.14945C8.39055 9.14945 8.09168 8.85102 8.09168 8.48295H8.982ZM8.75834 8.25914C8.69919 8.25914 8.64192 8.28319 8.60093 8.32404L9.22929 8.95476C9.10428 9.0793 8.93595 9.14945 8.75834 9.14945V8.25914ZM8.60063 8.32433C8.55805 8.36683 8.53461 8.42491 8.53461 8.48287H9.42492C9.42492 8.6596 9.35554 8.82874 9.22958 8.95447L8.60063 8.32433ZM8.53461 8.48287V6.78637H9.42492V8.48287H8.53461ZM8.53461 6.78637C8.53461 6.47132 8.7899 6.21559 9.10538 6.21559V7.1059C9.28196 7.1059 9.42492 6.96266 9.42492 6.78637H8.53461ZM9.10538 6.21559C9.42043 6.21559 9.67616 6.47088 9.67616 6.78637H8.78584C8.78584 6.96295 8.92909 7.1059 9.10538 7.1059V6.21559ZM9.67616 6.78642L9.676 8.06698L8.78569 8.06687L8.78584 6.78631L9.67616 6.78642ZM9.676 8.06693C9.676 7.94344 9.57625 7.84327 9.45218 7.84327V8.73358C9.08413 8.73358 8.78569 8.43473 8.78569 8.06693H9.676ZM9.45218 7.84327C9.39379 7.84327 9.33618 7.86692 9.29432 7.9087L9.92327 8.53884C9.79802 8.66385 9.62935 8.73358 9.45218 8.73358V7.84327ZM9.29402 7.909C9.25163 7.95139 9.22837 8.00924 9.22837 8.06693H10.1187C10.1187 8.24323 10.0496 8.41247 9.92356 8.53855L9.29402 7.909ZM9.22837 8.06691L9.22845 5.47132L10.1188 5.47134L10.1187 8.06694L9.22837 8.06691ZM9.22845 5.47133C9.22845 4.81099 8.74831 4.34646 8.24524 4.34646V3.45615C9.31741 3.45615 10.1188 4.40042 10.1188 5.47133H9.22845ZM7.81721 3.77901L7.81722 3.77899L8.67328 4.02357L8.67327 4.0236L7.81721 3.77901Z" fill="#4CAF4F" mask="url(#path-1-inside-1_316_1425)"/>
<path d="M5.38354 10.9257C5.32392 10.9615 5.24683 10.9422 5.2112 10.8826C5.17549 10.8232 5.19484 10.746 5.25423 10.7103M5.38354 10.9257L6.46879 9.46538C6.57364 9.40238 6.71192 9.42723 6.77658 9.52076M5.38354 10.9257L6.83824 10.053H6.83832L6.83848 10.0529M5.38354 10.9257L6.82374 10.0283L6.83824 10.0525L6.83832 10.0526L6.83848 10.0529M5.25423 10.7103L6.70901 9.83759C6.75982 9.80707 6.79577 9.7587 6.81008 9.70151M5.25423 10.7103L5.26896 10.7349M5.25423 10.7103L5.26898 10.7348M6.81008 9.70151C6.82582 9.63874 6.81386 9.57456 6.77658 9.52076M6.81008 9.70151L6.84599 9.7105L6.72372 9.86211L6.72373 9.8621L6.72374 9.86209L6.7766 9.83038H6.7767L6.84953 9.78669L6.84599 9.71051L6.81008 9.70151ZM6.77658 9.52076L6.77663 9.52072L6.77658 9.52076ZM5.26898 10.7348L5.30205 10.7898L5.31895 10.8179L5.31905 10.8181L5.36893 10.9011C5.41451 10.8736 5.42965 10.8144 5.40219 10.7684L5.26898 10.7348ZM5.26898 10.7348C5.26897 10.7348 5.26896 10.7349 5.26896 10.7349M5.26898 10.7348L5.36881 10.9011L5.36878 10.9011L5.36873 10.9012L5.34143 10.8557L5.34142 10.8557L5.31894 10.8182L5.31884 10.818L5.26896 10.7349M5.26898 10.7348L5.26896 10.7349M6.83848 10.0191C6.86655 10.0007 6.89223 9.97938 6.91517 9.95561L7.15462 9.83062L7.15463 9.83061L7.16789 9.82369C7.20639 9.8036 7.2452 9.79421 7.28207 9.79421C7.30201 9.79421 7.32257 9.79667 7.34352 9.80187C7.34353 9.80187 7.34354 9.80187 7.34355 9.80188L6.83848 10.0191ZM6.83848 10.0191V10.0529M6.83848 10.0191V10.0529M4.55747 9.8117L4.61333 9.8427L4.61334 9.84271L4.72717 9.90589L4.72711 9.90601L4.727 9.9062L4.71314 9.89848L4.71311 9.89846L4.55745 9.81174L4.55747 9.8117ZM4.55747 9.8117L4.53256 9.79787L4.55754 9.81158L4.55747 9.8117ZM6.33959 9.24999C6.55936 9.118 6.84214 9.17408 6.98309 9.37773L6.33959 9.24999ZM5.92534 12.0729C5.88963 12.0134 5.9089 11.9363 5.96836 11.9005L7.06651 11.2418L7.42314 11.0278L5.92534 12.0729ZM5.62614 11.3299L5.62627 11.3298C5.62621 11.3299 5.62615 11.3299 5.62609 11.33L5.62614 11.3299ZM3.94807 9.47993C3.96312 9.45282 3.97846 9.42519 3.99409 9.39702L3.96879 9.38369C3.9641 9.39214 3.95236 9.41328 3.93502 9.44452C3.9309 9.45194 3.92647 9.45992 3.92174 9.46844C3.93046 9.4728 3.93926 9.47661 3.94807 9.47993ZM7.55267 12.0524L7.53794 12.0278L7.55267 12.0524ZM3.12795 10.9376L3.12805 10.9374L3.12795 10.9376ZM7.76773 10.9526L7.76779 10.9526L7.76773 10.9526Z" fill="#4CAF4F" stroke="#4CAF4F" stroke-width="0.445155"/>
<path d="M13.0237 10.921C13.0425 10.9476 13.0628 10.9731 13.0838 10.9985L13.0237 10.921ZM13.0237 10.921C13.004 10.8929 12.981 10.8599 12.9733 10.8488L13.0237 10.921ZM8.41374 10.5947L8.43824 10.6094L8.41374 10.5947ZM8.41374 10.5947L8.43826 10.6094C8.4388 10.6085 8.43934 10.6076 8.43988 10.6067L8.41374 10.5947ZM9.3056 10.0289L9.30509 10.0286L9.30513 10.0286L9.3056 10.0289ZM10.8592 10.7348C10.8591 10.7348 10.859 10.7347 10.859 10.7347L10.8591 10.7348L10.8592 10.7348ZM8.46464 9.81606C8.46466 9.81602 8.46468 9.81598 8.46471 9.81595L8.52794 9.85398L8.52795 9.85399L8.60754 9.90186L8.60755 9.90187L8.63091 9.91593C8.63092 9.91592 8.63092 9.91591 8.63093 9.9159L8.63102 9.91574L8.46464 9.81606ZM10.5167 11.3055L10.5166 11.3057L10.5167 11.3055ZM10.9304 13.1723L10.9158 13.1966L10.9304 13.1723ZM10.1595 11.9007L10.1596 11.9006L10.1595 11.9007ZM10.145 11.9252C10.145 11.9252 10.1449 11.9252 10.1449 11.9252L10.145 11.9252ZM8.387 10.159L8.38677 10.1591L8.387 10.159Z" fill="#4CAF4F" stroke="#4CAF4F" stroke-width="0.445155"/>
</svg>
