<svg width="39" height="34" viewBox="0 0 39 34" fill="none" xmlns="http://www.w3.org/2000/svg">
<g clip-path="url(#clip0_316_1206)">
<path d="M38.6534 13.5848C38.6574 13.5558 38.6574 13.5264 38.6534 13.4974C38.6572 13.4737 38.6572 13.4496 38.6534 13.4259L38.3698 11.3846C38.3289 11.1404 38.2195 10.9121 38.0538 10.7253L38.0052 10.6697L37.9161 10.5824L33.0063 6.43616L33.144 6.5712C33.0314 6.43903 32.8899 6.33331 32.7301 6.26183C32.5703 6.19035 32.3961 6.15492 32.2204 6.15817H30.7297C30.4873 6.15346 30.2504 6.22902 30.0572 6.37263C29.8543 6.22988 29.6101 6.15471 29.3604 6.15817H27.8696C27.6741 6.15506 27.4813 6.20263 27.3105 6.29608C27.1398 6.38953 26.9973 6.52554 26.8975 6.69034C26.7435 6.92571 26.6856 7.20931 26.7354 7.48463L26.9218 8.77137C26.7983 8.70276 26.6585 8.66717 26.5166 8.66813H19.2978C19.0388 8.66972 18.7857 8.74414 18.5686 8.88258C18.3586 9.01143 18.1901 9.19593 18.0825 9.41474L17.5234 8.94612C17.3034 8.74653 17.013 8.63835 16.7133 8.64429H5.38672C5.1268 8.64894 4.87265 8.72012 4.64946 8.85081C4.34412 9.02602 4.12034 9.31091 4.0256 9.64509L0.428325 21.4403C0.361112 21.6347 0.3545 21.8443 0.409336 22.0423C0.464173 22.2403 0.577975 22.418 0.736203 22.5523C0.777433 22.5866 0.820724 22.6184 0.865838 22.6476C0.865838 22.6476 0.792909 22.5999 0.752398 22.5603L5.66221 26.7144C5.8699 26.9019 6.14145 27.0066 6.42374 27.0082H17.8394C18.1001 27.0016 18.3545 26.9276 18.5767 26.7938C18.7024 26.7264 18.8149 26.6377 18.9089 26.5317L18.9494 26.4761L19.0142 26.3967L19.0628 26.3093L19.5976 26.762C19.8023 26.9421 20.0679 27.0411 20.3429 27.04H31.7829C32.0433 27.0315 32.2972 26.9577 32.5202 26.8256C32.6431 26.7541 32.7549 26.6658 32.8524 26.5635L32.8929 26.5079L32.9577 26.4285C32.9921 26.3782 33.022 26.325 33.0468 26.2695C33.0733 26.2214 33.095 26.1709 33.1116 26.1187L36.3929 15.3481V15.2528C36.3969 15.2158 36.3969 15.1785 36.3929 15.1416V15.0701C36.3968 15.0464 36.3968 15.0223 36.3929 14.9986C36.3966 14.9484 36.3966 14.8979 36.3929 14.8477H37.4462C37.5378 14.8559 37.63 14.8559 37.7216 14.8477H37.7946C37.8539 14.8303 37.911 14.8063 37.9647 14.7762H38.0458L38.1916 14.665L38.2564 14.6173L38.3698 14.4744V14.4267L38.4508 14.2917C38.4463 14.2654 38.4463 14.2385 38.4508 14.2123C38.4465 14.1994 38.4465 14.1855 38.4508 14.1726C38.468 14.126 38.4816 14.0782 38.4913 14.0296C38.4876 14.0139 38.4876 13.9976 38.4913 13.9819C38.4874 13.9583 38.4874 13.9341 38.4913 13.9104C38.4913 13.9104 38.6534 13.6006 38.6534 13.5848Z" fill="black"/>
<path d="M17.0455 9.54982C17.0885 9.58795 17.1185 9.63809 17.1315 9.69348C17.1446 9.74886 17.14 9.80684 17.1184 9.85959L13.5292 21.6468C13.4841 21.7755 13.3916 21.8831 13.27 21.9487C13.171 22.0136 13.0565 22.0519 12.9378 22.0599H1.53023C1.43281 22.0553 1.34051 22.0157 1.27096 21.9487C1.22959 21.9112 1.20055 21.8624 1.18756 21.8087C1.17457 21.7549 1.17823 21.6986 1.19805 21.6468L4.79532 9.85959C4.83677 9.72927 4.92632 9.61881 5.04648 9.54982C5.14706 9.48958 5.26105 9.45415 5.37866 9.44656H16.7862C16.8829 9.44747 16.9755 9.48439 17.0455 9.54982ZM11.0905 19.2719L13.2375 12.2345H7.22592L5.08698 19.2719H11.0905ZM27.9345 9.66895C27.9734 9.7133 28.0221 9.74846 28.0768 9.77184C28.1315 9.79522 28.1908 9.80621 28.2505 9.80398H29.7331C29.7896 9.80453 29.8452 9.79095 29.8949 9.76455C29.9445 9.73814 29.9864 9.69977 30.0167 9.65307C30.043 9.61659 30.0616 9.57529 30.0714 9.53162C30.0811 9.48796 30.0818 9.44283 30.0734 9.3989L29.7817 7.30198C29.754 7.20493 29.7041 7.11531 29.6359 7.03986C29.597 6.99552 29.5484 6.96035 29.4937 6.93697C29.4389 6.91359 29.3795 6.90261 29.3199 6.90483H27.8373C27.7808 6.90429 27.7252 6.91787 27.6755 6.94427C27.6259 6.97068 27.584 7.00904 27.5537 7.05575C27.497 7.16695 27.4727 7.23843 27.497 7.30198L27.7968 9.3989C27.8121 9.50101 27.8604 9.59562 27.9345 9.66895ZM32.6418 7.28609C32.6139 7.18903 32.5641 7.09942 32.4959 7.02397C32.4586 6.97979 32.4114 6.94464 32.358 6.92122C32.3046 6.8978 32.2465 6.88676 32.188 6.88894H30.6973C30.6417 6.88739 30.5868 6.9006 30.5383 6.92717C30.4898 6.95374 30.4496 6.99268 30.4218 7.03986C30.3679 7.11032 30.3446 7.19884 30.357 7.28609L30.6567 9.38301C30.6756 9.48404 30.7233 9.57772 30.7945 9.65307C30.8341 9.69655 30.8829 9.73112 30.9374 9.75442C30.992 9.77773 31.051 9.78921 31.1105 9.78809H32.6012C32.6566 9.78881 32.7112 9.77525 32.7595 9.74877C32.8079 9.72228 32.8483 9.68381 32.8767 9.63719C32.9049 9.60165 32.9246 9.56037 32.9344 9.51639C32.9442 9.47241 32.9439 9.42684 32.9334 9.38301L32.6418 7.28609ZM26.6301 10.4632L26.4842 9.43067H19.2978C19.185 9.43677 19.0758 9.47243 18.9818 9.53393C18.9222 9.56583 18.8702 9.61005 18.8296 9.66353C18.7891 9.71701 18.7609 9.77848 18.7469 9.8437L18.1473 11.8135C18.1234 11.8628 18.1152 11.918 18.1239 11.9719C18.1326 12.0257 18.1577 12.0758 18.1959 12.1154C18.2643 12.1783 18.3534 12.215 18.4471 12.2186H27.181L25.034 19.2561H16.3244C16.2121 19.2586 16.1027 19.2916 16.0084 19.3513C15.8939 19.4227 15.8102 19.533 15.7735 19.6611L15.1658 21.631C15.146 21.6815 15.1408 21.7364 15.1508 21.7897C15.1608 21.843 15.1856 21.8925 15.2225 21.9328C15.2887 22 15.3786 22.0397 15.4737 22.044H26.9136C27.032 22.034 27.146 21.9958 27.2458 21.9328C27.3654 21.8669 27.4552 21.7591 27.497 21.631L30.7864 10.8604H27.0838C27.025 10.8615 26.9667 10.8508 26.9124 10.829C26.858 10.8071 26.8088 10.7745 26.7678 10.7333C26.7008 10.6613 26.6535 10.5739 26.6301 10.4791V10.4632Z" fill="white"/>
</g>
<defs>
<clipPath id="clip0_316_1206">
<rect width="38.2838" height="20.8821" fill="white" transform="translate(0.372559 6.15796)"/>
</clipPath>
</defs>
</svg>
