<svg width="34" height="34" viewBox="0 0 34 34" fill="none" xmlns="http://www.w3.org/2000/svg">
<g clip-path="url(#clip0_316_1198)">
<path d="M29.8464 8.13736C29.8464 8.46172 30.1126 8.72466 30.441 8.72466H31.0356C31.3639 8.72466 31.6301 8.46172 31.6301 8.13736C31.6301 7.813 31.3639 7.55005 31.0356 7.55005H30.441C30.1126 7.55005 29.8464 7.813 29.8464 8.13736Z" fill="#212326"/>
<path d="M12.6043 26.3439H15.4925L14.6517 25.5133C14.4287 25.2931 14.1262 25.1693 13.8109 25.1693H12.6043C8.00713 25.1693 4.28043 21.4881 4.28043 16.947C4.28043 12.4059 8.00713 8.72467 12.6043 8.72467H22.1172C26.7143 8.72467 30.441 12.4059 30.441 16.947C30.441 21.4881 26.7143 25.1693 22.1172 25.1693H18.5586C18.0855 25.1693 17.6319 24.9837 17.2973 24.6533L16.3123 23.6802C15.7548 23.1295 14.9986 22.8201 14.2101 22.8201H12.6043C9.32058 22.8201 6.65866 20.1906 6.65866 16.947C6.65866 13.7034 9.32058 11.0739 12.6043 11.0739H22.1172C25.4009 11.0739 28.0628 13.7034 28.0628 16.947C28.0628 20.1906 25.4009 22.8201 22.1172 22.8201H19.8322C19.3592 22.8201 18.9055 22.6344 18.571 22.304L17.5859 21.3309C17.0284 20.7802 16.2722 20.4708 15.4838 20.4708H12.6043C10.6341 20.4708 9.0369 18.8931 9.0369 16.947C9.0369 15.0008 10.6341 13.4231 12.6043 13.4231H22.1172C24.0874 13.4231 25.6846 15.0008 25.6846 16.947C25.6846 18.8694 24.1261 20.4323 22.1891 20.4701L22.1887 20.4708H21.3186C20.8456 20.4708 20.3919 20.2852 20.0574 19.9548L19.0723 18.9817C18.6148 18.5298 18.0236 18.2404 17.3906 18.1511L17.3607 18.1216H12.6043C11.9475 18.1216 11.4151 17.5957 11.4151 16.947C11.4151 16.2983 11.9475 15.7724 12.6043 15.7724H22.1172C22.7739 15.7724 23.3063 16.2983 23.3063 16.947C23.3063 17.5957 22.7739 18.1216 22.1172 18.1216H19.739L20.5798 18.9522C20.8028 19.1725 21.1053 19.2962 21.4206 19.2962H22.1172C23.4307 19.2962 24.4954 18.2444 24.4954 16.947C24.4954 15.6496 23.4307 14.5978 22.1172 14.5978H12.6043C11.2908 14.5978 10.226 15.6496 10.226 16.947C10.226 18.2444 11.2908 19.2962 12.6043 19.2962H16.9702C17.4433 19.2962 17.8969 19.4819 18.2315 19.8123L19.2166 20.7854C19.7741 21.3361 20.5302 21.6455 21.3186 21.6455H22.4145V21.6364C24.9029 21.4849 26.8737 19.4432 26.8737 16.947C26.8737 14.3521 24.7441 12.2485 22.1172 12.2485H12.6043C9.97735 12.2485 7.84778 14.3521 7.84778 16.947C7.84778 19.5419 9.97735 21.6455 12.6043 21.6455H15.4838C15.9569 21.6455 16.4105 21.8311 16.7451 22.1615L17.7302 23.1346C18.2877 23.6853 19.0438 23.9947 19.8322 23.9947H22.1172C26.0576 23.9947 29.2519 20.8393 29.2519 16.947C29.2519 13.0546 26.0576 9.89928 22.1172 9.89928H12.6043C8.66385 9.89928 5.46955 13.0546 5.46955 16.947C5.46955 20.8393 8.66385 23.9947 12.6043 23.9947H14.2101C14.6832 23.9947 15.1369 24.1803 15.4714 24.5107L16.4565 25.4838C17.014 26.0345 17.7702 26.3439 18.5586 26.3439H22.1172C27.3711 26.3439 31.6302 22.1368 31.6302 16.947C31.6302 11.7572 27.3711 7.55005 22.1172 7.55005L12.6043 7.55005C7.3504 7.55005 3.09131 11.7572 3.09131 16.947C3.09131 22.1368 7.3504 26.3439 12.6043 26.3439Z" fill="#212326"/>
</g>
<defs>
<clipPath id="clip0_316_1198">
<rect width="28.5388" height="18.7939" fill="white" transform="translate(3.09131 7.55005)"/>
</clipPath>
</defs>
</svg>
