<svg width="34" height="34" viewBox="0 0 34 34" fill="none" xmlns="http://www.w3.org/2000/svg">
<g clip-path="url(#clip0_316_1182)">
<path d="M31.551 9.33532C31.551 9.35886 31.551 9.38828 31.5449 9.40593C31.5142 9.63542 31.5142 9.8649 31.5326 10.1003C31.5449 10.1591 31.5571 10.218 31.6062 10.265C31.6859 10.3533 31.8085 10.3356 31.8576 10.2297C31.8821 10.1768 31.8821 10.1238 31.8698 10.0708C31.8085 9.84725 31.7962 9.61188 31.7901 9.38239C31.7901 9.37063 31.7901 9.35297 31.7901 9.33532C31.8576 9.32944 31.9189 9.32355 31.974 9.32355C32.017 9.31767 32.0538 9.31178 32.0844 9.29413C32.1763 9.24706 32.1764 9.14703 32.0783 9.09996C32.0415 9.0823 31.9924 9.07642 31.9495 9.07642C31.7962 9.0823 31.643 9.0823 31.4897 9.0823C31.4346 9.0823 31.3794 9.08819 31.3242 9.09407C31.2935 9.09996 31.2567 9.09996 31.2322 9.11761C31.1893 9.13526 31.1648 9.16468 31.1648 9.20587C31.1709 9.24706 31.1893 9.2706 31.2322 9.28825C31.2567 9.3059 31.2874 9.31178 31.318 9.31178C31.3916 9.31767 31.4713 9.32944 31.551 9.33532ZM33.237 9.606C33.237 9.61188 33.2431 9.61776 33.2431 9.61776C33.2676 9.77664 33.2922 9.92963 33.3105 10.0826C33.3167 10.1356 33.3228 10.1826 33.3596 10.2238C33.4393 10.3239 33.5619 10.3121 33.6171 10.2062C33.6416 10.1532 33.6477 10.1003 33.6355 10.0414C33.5987 9.8649 33.5803 9.68837 33.5435 9.51773C33.519 9.41182 33.4884 9.31178 33.4577 9.21764C33.4393 9.1588 33.3964 9.1176 33.3228 9.11172C33.2493 9.09996 33.1941 9.13526 33.1634 9.18822C33.1266 9.23529 33.096 9.28236 33.0714 9.33532C33.0285 9.42947 32.9918 9.52362 32.9427 9.61188C32.9366 9.63542 32.9304 9.65307 32.9182 9.67072C32.9121 9.65895 32.9059 9.65307 32.9059 9.65307C32.8262 9.50597 32.7527 9.35886 32.673 9.21764C32.6607 9.20587 32.6546 9.1941 32.6484 9.18233C32.6117 9.12938 32.5687 9.09996 32.5013 9.09996C32.44 9.10584 32.3909 9.14114 32.3603 9.1941C32.348 9.21764 32.348 9.23529 32.3419 9.25883C32.3174 9.44712 32.2867 9.63542 32.2622 9.82371C32.2499 9.92963 32.2438 10.0355 32.2438 10.1415C32.2377 10.165 32.2438 10.1944 32.256 10.218C32.2683 10.265 32.3051 10.2944 32.3541 10.3003C32.4155 10.3062 32.4584 10.2886 32.4768 10.2415C32.4951 10.2062 32.5013 10.1768 32.5074 10.1473C32.532 10.0414 32.5503 9.9414 32.5687 9.84136C32.581 9.78252 32.5871 9.73545 32.6055 9.67072C32.6178 9.69426 32.63 9.71191 32.6423 9.72956C32.6975 9.80018 32.7527 9.87079 32.8201 9.92963C32.8875 9.9767 32.9427 9.97082 32.9979 9.91786C33.0102 9.90609 33.0163 9.90021 33.0285 9.88844C33.0837 9.80606 33.1512 9.72368 33.2063 9.6413C33.2186 9.62953 33.2247 9.61776 33.237 9.606Z" fill="#3A3B7B"/>
<path d="M19.1106 9.45099C19.068 9.56281 19.0598 9.64338 19.0795 9.71034C19.1012 9.8014 19.1576 9.83121 19.2342 9.80805C19.9543 9.63714 21.5334 10.1223 22.118 10.2575C22.2559 10.2858 22.368 10.115 22.274 9.96186C22.1366 9.81354 20.5583 9.17852 19.956 9.1439C19.72 9.1311 19.2979 9.073 19.1106 9.45099Z" fill="#3A3B7B"/>
<path d="M25.2819 7.39536C25.3586 7.43787 25.4015 7.47843 25.4227 7.52374C25.4542 7.58318 25.4376 7.6243 25.3846 7.64529C24.9086 7.86826 24.2752 8.8282 24.0195 9.15928C23.9575 9.23544 23.8146 9.19118 23.793 9.06593C23.7974 8.92432 24.3589 7.88257 24.6723 7.59883C24.7954 7.48805 24.9989 7.27069 25.2819 7.39536Z" fill="#3A3B7B"/>
<path d="M21.4913 6.92273C21.5835 6.85603 21.6793 6.83266 21.7283 6.876C22.4465 7.4655 22.8273 8.39903 23.0632 9.25365C23.072 9.27356 23.0726 9.30213 23.0655 9.33194C23.0625 9.35741 23.0432 9.38433 23.0124 9.40515C22.9795 9.42814 22.9511 9.43514 22.9378 9.41533C22.623 9.00442 20.8252 7.40564 21.4913 6.92273Z" fill="#3A3B7B"/>
<path d="M6.28269 17.1431C6.45482 17.0201 6.64195 16.9177 6.83997 16.8382C7.04716 16.7814 7.26798 16.7908 7.46909 16.8651C7.67015 16.9395 7.84059 17.0746 7.95454 17.2501C8.05647 17.4252 8.09633 17.6273 8.0682 17.826C8.04006 18.0247 7.94542 18.2093 7.79849 18.3519C7.68459 18.4675 7.55527 18.5682 7.41399 18.6515C6.78427 19.0419 6.14893 19.411 5.51364 19.8014C5.38364 19.8991 5.24574 19.9868 5.10124 20.0635C4.88146 20.1687 4.63028 20.1969 4.39113 20.1432C4.15199 20.0895 3.93993 19.9572 3.79162 19.7693C3.68075 19.6363 3.58718 19.4908 3.51298 19.3361C2.91111 18.1219 2.28695 16.9131 1.70737 15.6776C1.43988 15.1427 1.22254 14.5276 1.01077 13.9339C0.919147 13.7614 0.901255 13.5614 0.960903 13.3764C1.02055 13.1915 1.15303 13.0361 1.33016 12.9434C1.5073 12.8508 1.7151 12.8281 1.9094 12.8802C2.10369 12.9323 2.26913 13.0552 2.37054 13.2225C2.68225 13.6201 2.95817 14.0424 3.19533 14.4848C3.79719 15.5546 4.3712 16.6243 4.95078 17.6619C4.98452 17.7193 5.02173 17.7746 5.06223 17.8277C5.49846 17.6517 5.90876 17.4215 6.28269 17.1431Z" fill="#3A3B7B"/>
<path d="M12.5057 16.7699C11.1292 18.3156 8.82206 17.9252 7.66291 15.9355C6.83811 14.5234 6.69323 12.1914 8.48771 10.7205C8.8709 10.4126 9.3291 10.2028 9.81959 10.1108C10.421 10.028 11.0343 10.1298 11.5717 10.4017C12.1092 10.6736 12.5434 11.1015 12.8122 11.6244C13.793 13.336 13.6537 15.5183 12.5057 16.7699ZM11.9484 13.1649C11.8022 12.7443 11.5088 12.3852 11.1181 12.1486C10.897 11.9973 10.6283 11.9238 10.3573 11.9404C10.0863 11.9569 9.8295 12.0626 9.63013 12.2395C8.83323 12.9188 8.66601 14.5288 9.24558 15.4862C9.31947 15.6423 9.42794 15.7811 9.56353 15.8927C9.69911 16.0044 9.85848 16.0863 10.0305 16.1326C10.2025 16.179 10.3829 16.1887 10.5592 16.1612C10.7356 16.1335 10.9034 16.0693 11.0512 15.9729C11.4832 15.6515 11.8001 15.2088 11.9579 14.7066C12.1157 14.2043 12.1066 13.6673 11.9317 13.1702L11.9484 13.1649Z" fill="#3A3B7B"/>
<path d="M18.123 13.839C17.9821 13.8681 17.8366 13.8698 17.6949 13.8441C17.5533 13.8183 17.4184 13.7657 17.2983 13.6892C17.1932 13.6315 17.1027 13.5522 17.0333 13.4569C16.964 13.3616 16.9176 13.2528 16.8973 13.1382C16.8771 13.0236 16.8836 12.9062 16.9162 12.7943C16.9489 12.6824 17.0071 12.5789 17.0865 12.4911C17.2249 12.3147 17.4213 12.1885 17.6438 12.1328C18.2249 11.9709 18.8231 11.8722 19.4271 11.8386C19.5599 11.8238 19.6943 11.8345 19.8226 11.8703C19.9509 11.9061 20.0705 11.966 20.1743 12.0468C20.2781 12.1275 20.3641 12.2273 20.4272 12.3403C20.4903 12.4534 20.5292 12.5774 20.5417 12.7051C20.7158 13.3322 20.7349 13.9898 20.5974 14.6253C20.0959 16.6791 18.3683 17.3852 16.4289 16.7273C15.8845 16.5514 15.4072 16.2236 15.058 15.7859C14.5922 15.2588 14.262 14.6341 14.0939 13.962C13.9577 13.3635 13.9726 12.7426 14.1374 12.1508C14.3022 11.559 14.6121 11.0136 15.0413 10.5602C15.4485 10.0674 15.9771 9.6796 16.5794 9.43166C16.96 9.23033 17.4053 9.17308 17.8277 9.2712C17.9235 9.29665 18.0105 9.34625 18.0796 9.41484C18.1487 9.48343 18.1975 9.56852 18.2208 9.66129C18.2441 9.75405 18.2411 9.85112 18.2122 9.94241C18.1832 10.0337 18.1294 10.1159 18.0562 10.1805C17.917 10.3014 17.7658 10.4089 17.6048 10.5014C17.1093 10.8042 16.6782 11.1944 16.3342 11.6514C16.1087 11.947 15.9534 12.2866 15.8792 12.646C15.8051 13.0055 15.8139 13.3762 15.9051 13.732C16.0315 14.2172 16.3119 14.6527 16.7075 14.9782C17.9336 16.048 19.5274 15.0157 19.2488 13.5555C18.842 13.6518 18.4853 13.7534 18.123 13.839Z" fill="#3A3B7B"/>
<path d="M25.613 16.8556C23.8019 17.9254 21.7399 16.8556 21.2885 14.6092C20.9597 13.0046 21.5839 10.7581 23.7684 9.90232C24.2332 9.72415 24.7374 9.6616 25.2341 9.72046C25.8309 9.82531 26.3783 10.1073 26.7992 10.5266C27.2201 10.946 27.4934 11.4815 27.5802 12.0578C27.9481 13.9673 27.1121 16.0052 25.613 16.8556ZM26.2428 13.2559C26.2422 12.8116 26.0785 12.3817 25.7803 12.0418C25.6208 11.8316 25.3904 11.681 25.1282 11.6156C24.866 11.5503 24.5883 11.5742 24.3424 11.6834C23.3616 12.0899 22.6706 13.5662 22.9214 14.652C22.9405 14.8224 22.9982 14.9867 23.0904 15.1335C23.1826 15.2802 23.3071 15.4059 23.4552 15.5017C23.6033 15.5974 23.7714 15.661 23.9477 15.6879C24.1241 15.7148 24.3045 15.7045 24.4762 15.6575C24.9946 15.4837 25.4435 15.1588 25.7602 14.7283C26.0769 14.2977 26.2456 13.783 26.2428 13.2559Z" fill="#3A3B7B"/>
<path d="M29.4119 17.305C29.3846 17.5008 29.2774 17.6781 29.1138 17.798C28.9502 17.9178 28.7437 17.9704 28.5398 17.9442C28.3358 17.9179 28.1511 17.815 28.0262 17.658C27.9013 17.501 27.8465 17.3029 27.8738 17.1071C27.9012 16.9113 28.0084 16.734 28.172 16.6141C28.3355 16.4943 28.542 16.4417 28.746 16.4679C28.9499 16.4942 29.1347 16.5971 29.2596 16.7541C29.3845 16.9111 29.4393 17.1093 29.4119 17.305ZM28.9271 10.0896C29.0331 9.93423 29.1886 9.81592 29.3704 9.7523C29.5521 9.68868 29.7505 9.68317 29.9358 9.73658C30.1242 9.78182 30.2906 9.88781 30.4073 10.0368C30.5239 10.1858 30.5837 10.3687 30.5767 10.5549C30.5521 10.8537 30.5055 11.1504 30.4373 11.4428C30.2534 12.4323 30.0751 13.4218 29.8801 14.4007C29.7909 14.7911 29.6739 15.1655 29.5457 15.5613C29.5011 15.685 29.4266 15.7968 29.3283 15.8876C29.2673 15.9559 29.1893 16.0082 29.1015 16.0398C29.0137 16.0715 28.9191 16.0813 28.8263 16.0685C28.7335 16.0557 28.6456 16.0207 28.5707 15.9666C28.4957 15.9125 28.4362 15.8412 28.3977 15.7592C28.3314 15.6121 28.2954 15.4541 28.2918 15.2939C28.2918 14.6306 28.2918 13.9621 28.3364 13.2935C28.4121 12.3393 28.5611 11.3918 28.7822 10.4587C28.8082 10.3336 28.8572 10.2141 28.9271 10.1056V10.0896Z" fill="#3A3B7B"/>
<path fill-rule="evenodd" clip-rule="evenodd" d="M3.92806 21.603C3.86226 21.7439 3.84421 21.9011 3.87637 22.0524C3.89776 22.2518 3.94474 22.4479 4.01625 22.6362C4.10552 22.8669 4.20542 23.095 4.3286 23.3762C4.35693 23.4408 4.38653 23.5084 4.41751 23.5794C4.58362 23.9603 4.79204 24.4471 5.07005 25.1515C5.14874 25.3516 5.21861 25.5534 5.28898 25.7565C5.31741 25.8386 5.34593 25.921 5.37513 26.0035C5.4798 26.2969 5.65991 26.5605 5.89863 26.7695C6 26.8843 6.13446 26.968 6.28523 27.0098C6.43895 27.0525 6.60243 27.0498 6.75451 27.0021C6.90659 26.9543 7.04016 26.8638 7.13789 26.7421C7.2337 26.6229 7.29067 26.4792 7.30174 26.3291C7.3639 26.0367 7.34269 25.7335 7.24024 25.4516C7.07765 24.9835 6.89243 24.5147 6.67885 24.0562L6.67786 24.0542C6.3265 23.3368 5.96935 22.6245 5.59529 21.9118L5.59249 21.9068C5.48299 21.7211 5.34068 21.5552 5.17196 21.4163C5.06243 21.2924 4.91135 21.2088 4.7445 21.18C4.5741 21.1506 4.39835 21.1802 4.24864 21.2637C4.10701 21.3413 3.99474 21.4601 3.92806 21.603Z" fill="#3A3B7B"/>
<path fill-rule="evenodd" clip-rule="evenodd" d="M9.29458 19.8365C8.74365 19.6996 8.16828 19.6796 7.60857 19.7781C7.17505 19.819 6.74868 19.915 6.4526 20.1051C6.30202 20.2019 6.18027 20.3261 6.11255 20.484C6.04446 20.6428 6.03576 20.8244 6.09157 21.0267C6.19345 21.3973 6.32576 21.7576 6.4576 22.1168L6.47896 22.175L6.47948 22.1762C6.87645 23.2197 7.27721 24.2596 7.68162 25.2959C7.72878 25.4592 7.79547 25.6168 7.88034 25.7654L7.88193 25.7681C7.99405 25.9527 8.13786 26.1178 8.30728 26.2565C8.39201 26.3328 8.49679 26.3855 8.61041 26.4091C8.72514 26.4329 8.84446 26.426 8.95537 26.3891C9.06632 26.3523 9.16456 26.2869 9.23943 26.2001C9.31309 26.1147 9.36132 26.0119 9.37903 25.9024C9.45212 25.605 9.42871 25.2933 9.31187 25.009C9.27542 24.9134 9.24681 24.8156 9.21667 24.7127C9.20662 24.6784 9.19643 24.6435 9.18568 24.6079C10.1114 24.2606 11.0963 23.7936 11.4427 22.7073C11.5783 22.3319 11.5896 21.9253 11.4751 21.5435C11.3604 21.1612 11.125 20.8223 10.8015 20.5736C10.3612 20.2254 9.84691 19.9738 9.29458 19.8365ZM7.76748 21.169C7.7857 21.164 7.80407 21.1593 7.82248 21.1549C8.42515 21.064 9.04174 21.1852 9.55873 21.496C9.78657 21.6481 9.8799 21.8171 9.89593 21.9797C9.91248 22.1471 9.84905 22.3285 9.72165 22.5028C9.48091 22.8322 9.0416 23.0959 8.64476 23.145C8.35546 22.5056 8.06168 21.8403 7.76748 21.169Z" fill="#3A3B7B"/>
<path d="M12.9675 18.6661C13.6236 18.3753 14.4363 18.3251 15.0722 18.5296C15.2324 18.5743 15.3713 18.6712 15.4653 18.8035C15.5587 18.9351 15.6018 19.0936 15.5874 19.252C15.5865 19.3549 15.5602 19.4561 15.5107 19.5474C15.4603 19.6403 15.3873 19.7203 15.298 19.7804C15.2086 19.8406 15.1055 19.8793 14.9973 19.8931C14.889 19.9069 14.779 19.8956 14.6763 19.8599L14.6685 19.8572L14.6611 19.8535C14.6086 19.8271 14.5528 19.8072 14.4951 19.7943L14.4914 19.7935C14.0441 19.6795 13.6221 19.8684 13.468 20.1006C13.3944 20.2113 13.3853 20.3231 13.4466 20.4247C13.5121 20.5336 13.673 20.6558 13.9984 20.7429C14.0879 20.7664 14.1796 20.7892 14.2727 20.8123C14.53 20.8763 14.7974 20.9427 15.056 21.0348L15.057 21.0351C16.25 21.4708 16.6942 22.3731 16.5421 23.2217C16.3917 24.0609 15.6614 24.8247 14.5633 25.0049C14.1637 25.0899 13.7478 25.0733 13.3569 24.9568C12.9649 24.84 12.6117 24.6268 12.3321 24.3383L12.3248 24.3308C12.2366 24.2221 12.1773 24.0944 12.1509 23.959C12.1267 23.8367 12.1395 23.7103 12.1876 23.5948C12.2355 23.4799 12.3164 23.3805 12.4209 23.308C12.5312 23.2259 12.6642 23.1767 12.8035 23.1664C12.9422 23.1561 13.0811 23.1851 13.2029 23.2496C13.3246 23.306 13.4378 23.378 13.5394 23.4636L13.5413 23.4652C13.7211 23.6229 13.9386 23.6641 14.1471 23.626C14.3587 23.5873 14.5576 23.4672 14.6856 23.3078C14.8127 23.1494 14.8637 22.9612 14.8032 22.7785C14.7422 22.5945 14.559 22.3883 14.1563 22.2159C14.0511 22.173 13.942 22.1384 13.8284 22.1048C13.7978 22.0957 13.7667 22.0867 13.7352 22.0775C13.6513 22.053 13.5649 22.0278 13.4802 22.0001C13.4219 21.981 13.364 21.9629 13.3067 21.945C13.1501 21.896 12.9974 21.8483 12.8505 21.7843C12.5307 21.6798 12.2544 21.4791 12.0627 21.212C11.8702 20.9438 11.7734 20.6231 11.7866 20.2977C11.7876 19.5048 12.3079 18.9586 12.9675 18.6661Z" fill="#3A3B7B"/>
<path d="M21.2854 18.5816C21.1582 18.522 21.0175 18.4937 20.8761 18.4992C20.7346 18.5048 20.5969 18.5441 20.4752 18.6136C20.3543 18.6826 20.2531 18.7792 20.1805 18.8949C20.114 18.9923 20.068 19.1012 20.0451 19.2155C20.0221 19.3298 20.0227 19.4473 20.0466 19.5613C20.0703 19.7078 20.0966 19.8503 20.1225 19.9908C20.1655 20.2234 20.2073 20.4507 20.2348 20.6825L20.2359 20.6883C20.2986 21.0518 20.3315 21.4194 20.3344 21.7878L20.3347 21.7931C20.3562 22.1909 20.2149 22.581 19.9413 22.8806L19.937 22.8859C19.8479 22.9954 19.7289 23.079 19.5931 23.1273C19.4574 23.1756 19.3104 23.1867 19.1684 23.1594C19.0265 23.132 18.8953 23.0674 18.7895 22.9725C18.6837 22.8777 18.6074 22.7561 18.5693 22.6221C18.4879 22.3397 18.4409 22.0491 18.4289 21.7563L18.5678 19.6339C18.5699 19.6062 18.5722 19.5777 18.5746 19.549C18.5799 19.4846 18.5853 19.4189 18.5875 19.3577C18.5908 19.2676 18.588 19.1749 18.5661 19.0872C18.5437 18.9975 18.5012 18.9123 18.4256 18.8396C18.3509 18.7677 18.2499 18.7147 18.1229 18.6786C17.8932 18.6148 17.6989 18.6168 17.5371 18.6827C17.3752 18.7487 17.2642 18.8711 17.1857 19.0124C17.1078 19.1526 17.0577 19.3186 17.0199 19.4849C16.9918 19.6083 16.9692 19.7378 16.9478 19.861C16.9403 19.9035 16.9331 19.9452 16.9257 19.9857L16.9256 19.9869C16.8108 20.663 16.7766 21.3494 16.8237 22.0329C16.8325 22.4022 16.9128 22.7668 17.0604 23.108C17.2271 23.5482 17.5288 23.9297 17.9259 24.202C18.3239 24.4748 18.7988 24.6251 19.2877 24.6331C19.7767 24.641 20.2566 24.5062 20.664 24.2465C21.0707 23.9871 21.3859 23.6154 21.5679 23.1805C21.8224 22.6266 21.942 22.0241 21.9173 21.4191C21.9023 20.9774 21.8773 20.5323 21.8524 20.0894C21.8401 19.8722 21.8279 19.6554 21.817 19.44C21.8115 19.2239 21.7373 19.0147 21.6043 18.8403C21.522 18.7301 21.4124 18.6412 21.2854 18.5816Z" fill="#3A3B7B"/>
<path d="M25.788 21.9096C25.7752 21.9253 25.7616 21.9416 25.7473 21.9585C25.6439 21.3856 25.548 20.8129 25.4519 20.2393C25.4175 20.0335 25.3828 19.8268 25.348 19.6207L25.3441 19.5977L25.3314 19.5779C25.3074 19.5405 25.305 19.5038 25.305 19.4256V19.4166L25.3036 19.4077C25.2776 19.2462 25.2015 19.096 25.0853 18.9766C24.9694 18.8575 24.8188 18.7747 24.6533 18.7387C24.4879 18.6996 24.3142 18.7082 24.154 18.7635C23.9941 18.8187 23.8548 18.9179 23.7534 19.0487C23.6691 19.149 23.6 19.2603 23.5482 19.3792C23.4306 19.6354 23.3121 19.8922 23.1932 20.1497L23.1911 20.1542C22.8943 20.7971 22.5955 21.4442 22.3053 22.0965L22.3044 22.0986C22.1263 22.5216 21.9793 22.9672 21.8328 23.4115C21.8035 23.5002 21.7743 23.5888 21.7448 23.6772C21.6919 23.8174 21.6687 23.9663 21.6767 24.1152C21.667 24.2485 21.7003 24.3814 21.772 24.4961C21.8451 24.6131 21.9546 24.7051 22.085 24.7593C22.2233 24.8175 22.3778 24.8298 22.5242 24.7944C22.6703 24.759 22.8001 24.6781 22.893 24.5643C23.0117 24.4242 23.1139 24.2713 23.1971 24.1093C23.4429 23.6268 23.6778 23.1384 23.9116 22.6521C24.0021 22.464 24.09 22.2955 24.1901 22.1121C24.1969 22.1347 24.2039 22.1568 24.2112 22.1789C24.316 22.6218 24.4929 23.0461 24.7355 23.4361C24.7814 23.5188 24.8453 23.591 24.9229 23.6478C25.0014 23.7054 25.092 23.7457 25.1884 23.7662C25.2848 23.7867 25.3848 23.7868 25.4812 23.7665C25.5776 23.7462 25.6685 23.7058 25.747 23.6486L25.9025 23.5368L27.1094 22.5612L27.038 22.9977C26.94 23.5977 26.8428 24.1928 26.7396 24.7879C26.672 25.0517 26.6721 25.3273 26.7398 25.591C26.7692 25.7394 26.844 25.876 26.9546 25.9834C27.0662 26.0918 27.2092 26.1653 27.3649 26.1947C27.5206 26.224 27.6819 26.2078 27.8279 26.148C27.9717 26.0891 28.0941 25.9907 28.1796 25.8652C28.3786 25.6283 28.5025 25.3414 28.5365 25.0387C28.5877 24.6113 28.6456 24.1781 28.7035 23.745C28.7702 23.2458 28.8369 22.7468 28.8932 22.2573L28.8934 22.2558C28.9476 21.72 28.9738 21.182 28.972 20.6437C28.9839 20.4736 28.9397 20.3041 28.8457 20.1593C28.7514 20.0139 28.6116 19.9009 28.4464 19.8363C28.2746 19.7613 28.0823 19.7413 27.8978 19.7792C27.7144 19.8168 27.5485 19.9096 27.424 20.0439C27.2013 20.2415 26.9925 20.453 26.7988 20.6769L26.7975 20.6784C26.586 20.9313 26.376 21.1892 26.1673 21.4454C26.0404 21.6012 25.9139 21.7566 25.788 21.9096Z" fill="#3A3B7B"/>
</g>
<defs>
<clipPath id="clip0_316_1182">
<rect width="32.7153" height="20.186" fill="white" transform="translate(0.92627 6.854)"/>
</clipPath>
</defs>
</svg>
