<svg width="39" height="34" viewBox="0 0 39 34" fill="none" xmlns="http://www.w3.org/2000/svg">
<g clip-path="url(#clip0_316_1178)">
<path d="M38.3463 13.5848C38.3503 13.5558 38.3503 13.5264 38.3463 13.4974C38.35 13.4737 38.35 13.4496 38.3463 13.4259L38.0627 11.3846C38.0218 11.1404 37.9123 10.9121 37.7467 10.7253L37.6981 10.6697L37.609 10.5824L32.6992 6.43616L32.8369 6.5712C32.7242 6.43903 32.5828 6.33331 32.423 6.26183C32.2631 6.19035 32.0889 6.15492 31.9133 6.15817H30.4225C30.1801 6.15346 29.9432 6.22902 29.7501 6.37263C29.5472 6.22988 29.303 6.15471 29.0533 6.15817H27.5625C27.367 6.15506 27.1741 6.20263 27.0034 6.29608C26.8327 6.38953 26.6902 6.52554 26.5903 6.69034C26.4363 6.92571 26.3785 7.20931 26.4283 7.48463L26.6146 8.77137C26.4912 8.70276 26.3514 8.66717 26.2095 8.66813H18.9907C18.7317 8.66972 18.4786 8.74414 18.2615 8.88258C18.0515 9.01143 17.8829 9.19593 17.7754 9.41474L17.2163 8.94612C16.9963 8.74653 16.7059 8.63835 16.4061 8.64429H5.07959C4.81967 8.64894 4.56552 8.72012 4.34233 8.85081C4.03699 9.02602 3.81321 9.31091 3.71847 9.64509L0.121196 21.4403C0.0539827 21.6347 0.0473707 21.8443 0.102207 22.0423C0.157044 22.2403 0.270846 22.418 0.429074 22.5523C0.470304 22.5866 0.513595 22.6184 0.558709 22.6476C0.558709 22.6476 0.48578 22.5999 0.44527 22.5603L5.35508 26.7144C5.56277 26.9019 5.83432 27.0066 6.11661 27.0082H17.5323C17.793 27.0016 18.0473 26.9276 18.2696 26.7938C18.3953 26.7264 18.5078 26.6377 18.6018 26.5317L18.6423 26.4761L18.7071 26.3967L18.7557 26.3093L19.2904 26.762C19.4952 26.9421 19.7608 27.0411 20.0358 27.04H31.4758C31.7362 27.0315 31.99 26.9577 32.213 26.8256C32.3359 26.7541 32.4477 26.6658 32.5453 26.5635L32.5857 26.5079L32.6505 26.4285C32.685 26.3782 32.7149 26.325 32.7397 26.2695C32.7661 26.2214 32.7878 26.1709 32.8045 26.1187L36.0858 15.3481V15.2528C36.0898 15.2158 36.0898 15.1785 36.0858 15.1416V15.0701C36.0897 15.0464 36.0897 15.0223 36.0858 14.9986C36.0894 14.9484 36.0894 14.8979 36.0858 14.8477H37.1391C37.2307 14.8559 37.3229 14.8559 37.4145 14.8477H37.4874C37.5467 14.8303 37.6038 14.8063 37.6576 14.7762H37.7386L37.8844 14.665L37.9492 14.6173L38.0627 14.4744V14.4267L38.1437 14.2917C38.1392 14.2654 38.1392 14.2385 38.1437 14.2123C38.1394 14.1994 38.1394 14.1855 38.1437 14.1726C38.1609 14.126 38.1745 14.0782 38.1842 14.0296C38.1804 14.0139 38.1804 13.9976 38.1842 13.9819C38.1803 13.9583 38.1803 13.9341 38.1842 13.9104C38.1842 13.9104 38.3463 13.6006 38.3463 13.5848Z" fill="black"/>
<path d="M16.7383 9.54982C16.7813 9.58795 16.8114 9.63809 16.8244 9.69348C16.8375 9.74886 16.8329 9.80684 16.8113 9.85959L13.2221 21.6468C13.1769 21.7755 13.0845 21.8831 12.9629 21.9487C12.8639 22.0136 12.7494 22.0519 12.6306 22.0599H1.2231C1.12568 22.0553 1.03338 22.0157 0.963834 21.9487C0.922461 21.9112 0.893424 21.8624 0.880434 21.8087C0.867444 21.7549 0.871102 21.6986 0.890919 21.6468L4.48819 9.85959C4.52964 9.72927 4.61919 9.61881 4.73935 9.54982C4.83993 9.48958 4.95392 9.45415 5.07153 9.44656H16.4791C16.5757 9.44747 16.6684 9.48439 16.7383 9.54982ZM10.7834 19.2719L12.9304 12.2345H6.91879L4.77985 19.2719H10.7834ZM27.6274 9.66895C27.6663 9.7133 27.7149 9.74846 27.7697 9.77184C27.8244 9.79522 27.8837 9.80621 27.9434 9.80398H29.426C29.4825 9.80453 29.5381 9.79095 29.5878 9.76455C29.6374 9.73814 29.6793 9.69977 29.7096 9.65307C29.7359 9.61659 29.7545 9.57529 29.7642 9.53162C29.774 9.48796 29.7747 9.44283 29.7663 9.3989L29.4746 7.30198C29.4469 7.20493 29.397 7.11531 29.3288 7.03986C29.2898 6.99552 29.2412 6.96035 29.1865 6.93697C29.1318 6.91359 29.0724 6.90261 29.0128 6.90483H27.5302C27.4737 6.90429 27.418 6.91787 27.3684 6.94427C27.3188 6.97068 27.2769 7.00904 27.2466 7.05575C27.1899 7.16695 27.1656 7.23843 27.1899 7.30198L27.4896 9.3989C27.505 9.50101 27.5533 9.59562 27.6274 9.66895ZM32.3346 7.28609C32.3068 7.18903 32.2569 7.09942 32.1888 7.02397C32.1515 6.97979 32.1043 6.94464 32.0509 6.92122C31.9975 6.8978 31.9393 6.88676 31.8809 6.88894H30.3901C30.3346 6.88739 30.2797 6.9006 30.2312 6.92717C30.1827 6.95374 30.1425 6.99268 30.1147 7.03986C30.0608 7.11032 30.0374 7.19884 30.0499 7.28609L30.3496 9.38301C30.3684 9.48404 30.4162 9.57772 30.4874 9.65307C30.527 9.69655 30.5757 9.73112 30.6303 9.75442C30.6849 9.77773 30.7438 9.78921 30.8033 9.78809H32.2941C32.3495 9.78881 32.4041 9.77525 32.4524 9.74877C32.5008 9.72228 32.5412 9.68381 32.5696 9.63719C32.5978 9.60165 32.6174 9.56037 32.6273 9.51639C32.6371 9.47241 32.6367 9.42684 32.6263 9.38301L32.3346 7.28609ZM26.3229 10.4632L26.1771 9.43067H18.9907C18.8779 9.43677 18.7687 9.47243 18.6747 9.53393C18.615 9.56583 18.5631 9.61005 18.5225 9.66353C18.482 9.71701 18.4538 9.77848 18.4398 9.8437L17.8402 11.8135C17.8163 11.8628 17.8081 11.918 17.8168 11.9719C17.8255 12.0257 17.8506 12.0758 17.8888 12.1154C17.9571 12.1783 18.0463 12.215 18.14 12.2186H26.8739L24.7269 19.2561H16.0173C15.905 19.2586 15.7956 19.2916 15.7013 19.3513C15.5867 19.4227 15.503 19.533 15.4663 19.6611L14.8587 21.631C14.8389 21.6815 14.8337 21.7364 14.8436 21.7897C14.8537 21.843 14.8785 21.8925 14.9154 21.9328C14.9816 22 15.0714 22.0397 15.1666 22.044H26.6065C26.7248 22.034 26.8389 21.9958 26.9387 21.9328C27.0583 21.8669 27.1481 21.7591 27.1899 21.631L30.4792 10.8604H26.7767C26.7179 10.8615 26.6596 10.8508 26.6052 10.829C26.5509 10.8071 26.5017 10.7745 26.4607 10.7333C26.3937 10.6613 26.3463 10.5739 26.3229 10.4791V10.4632Z" fill="white"/>
</g>
<defs>
<clipPath id="clip0_316_1178">
<rect width="38.2838" height="20.8821" fill="white" transform="translate(0.0654297 6.15796)"/>
</clipPath>
</defs>
</svg>
