<svg width="34" height="34" viewBox="0 0 34 34" fill="none" xmlns="http://www.w3.org/2000/svg">
<g clip-path="url(#clip0_316_1175)">
<path fill-rule="evenodd" clip-rule="evenodd" d="M9.81164 9.71806L2.86084 16.599C4.25113 17.9753 5.83931 19.1352 7.57089 20.0427C8.04951 21.2995 8.79973 22.4782 9.82153 23.4897C13.6659 27.2953 19.8987 27.2953 23.7429 23.4897C24.7648 22.4782 25.515 21.2995 25.9936 20.0426C27.7251 19.1352 29.3134 17.9753 30.7036 16.599L23.7584 9.72366C23.7533 9.71852 23.7481 9.71337 23.7429 9.70823C19.8987 5.90259 13.6659 5.90259 9.82153 9.70823C9.81824 9.71151 9.81494 9.71478 9.81164 9.71806ZM23.0778 21.2841C21.0523 21.9609 18.9259 22.3074 16.7822 22.3074C14.6385 22.3074 12.5123 21.9609 10.4867 21.2841C10.7062 21.5724 10.9485 21.849 11.2137 22.1116C14.2891 25.1561 19.2753 25.1561 22.3508 22.1116C22.616 21.849 22.8584 21.5724 23.0778 21.2841ZM11.3564 10.9486C11.8787 11.2901 12.434 11.5824 13.0151 11.8207C14.2094 12.3104 15.4895 12.5625 16.7822 12.5625C18.075 12.5625 19.355 12.3104 20.5494 11.8207C21.1304 11.5824 21.6858 11.2901 22.2081 10.9485C19.171 8.08781 14.3935 8.08781 11.3564 10.9486Z" fill="#3B4158"/>
</g>
<defs>
<clipPath id="clip0_316_1175">
<rect width="27.8428" height="19.4899" fill="white" transform="translate(2.86084 6.854)"/>
</clipPath>
</defs>
</svg>
