<svg width="37" height="34" viewBox="0 0 37 34" fill="none" xmlns="http://www.w3.org/2000/svg">
<g clip-path="url(#clip0_316_1202)">
<path d="M8.58338 9.63843C7.16985 9.63843 5.81423 10.1999 4.81472 11.1995L1.55273 14.4614C0.553218 15.461 -0.00830078 16.8166 -0.00830078 18.2301C-0.00830078 21.1736 2.37789 23.5598 5.32141 23.5598C6.73494 23.5598 8.09056 22.9983 9.09007 21.9988L11.3464 19.7424C11.3464 19.7425 11.3464 19.7424 11.3464 19.7424L17.9206 13.1682C18.398 12.6909 19.0454 12.4227 19.7205 12.4227C20.8507 12.4227 21.8089 13.1593 22.1411 14.1787L24.2159 12.1039C23.2694 10.6214 21.6098 9.63843 19.7205 9.63843C18.307 9.63843 16.9513 10.1999 15.9518 11.1995L7.12131 20.03C6.64394 20.5074 5.9965 20.7755 5.32141 20.7755C3.9156 20.7755 2.77598 19.6359 2.77598 18.2301C2.77598 17.555 3.04415 16.9076 3.52151 16.4302L6.78348 13.1682C7.26085 12.6909 7.90828 12.4227 8.58338 12.4227C9.71365 12.4227 10.6718 13.1594 11.004 14.1788L13.0789 12.1039C12.1324 10.6215 10.4727 9.63843 8.58338 9.63843Z" fill="#394149"/>
<path d="M18.2585 20.03C17.7812 20.5074 17.1337 20.7755 16.4586 20.7755C15.3285 20.7755 14.3704 20.0391 14.0381 19.0199L11.9634 21.0947C12.9099 22.5769 14.5695 23.5598 16.4586 23.5598C17.8722 23.5598 19.2278 22.9983 20.2273 21.9988L29.0578 13.1682C29.5352 12.6909 30.1826 12.4227 30.8577 12.4227C32.2635 12.4227 33.4032 13.5623 33.4032 14.9681C33.4032 15.6432 33.135 16.2907 32.6576 16.768L29.3956 20.03C28.9183 20.5074 28.2708 20.7755 27.5958 20.7755C26.4656 20.7755 25.5074 20.039 25.1751 19.0197L23.1004 21.0945C24.0469 22.5769 25.7065 23.5598 27.5958 23.5598C29.0093 23.5598 30.3649 22.9983 31.3644 21.9988L34.6264 18.7368C35.6259 17.7373 36.1874 16.3817 36.1874 14.9681C36.1874 12.0246 33.8013 9.63843 30.8577 9.63843C29.4442 9.63843 28.0886 10.1999 27.0891 11.1995L18.2585 20.03Z" fill="#394149"/>
</g>
<defs>
<clipPath id="clip0_316_1202">
<rect width="36.1956" height="13.9214" fill="white" transform="translate(-0.00830078 9.63843)"/>
</clipPath>
</defs>
</svg>
